<?xml version="1.0" encoding="utf-8"?>
<!-- Generator: Adobe Illustrator 16.0.0, SVG Export Plug-In . SVG Version: 6.00 Build 0)  -->
<!DOCTYPE svg PUBLIC "-//W3C//DTD SVG 1.1//EN" "http://www.w3.org/Graphics/SVG/1.1/DTD/svg11.dtd">
<svg version="1.1" id="Layer_1" xmlns="http://www.w3.org/2000/svg" xmlns:xlink="http://www.w3.org/1999/xlink" x="0px" y="0px"
	 width="419.855px" height="202.47px" viewBox="0 0 419.855 202.47" enable-background="new 0 0 419.855 202.47"
	 xml:space="preserve">
<pattern  x="0.855" y="-105.53" width="72" height="72" patternUnits="userSpaceOnUse" id="Grid_1_pica_Lines" viewBox="72.25 -144.25 72 72" overflow="visible">
	<g>
		<polygon fill="none" points="72.25,-144.25 144.25,-144.25 144.25,-72.25 72.25,-72.25 		"/>
		<g>
			<line fill="none" stroke="#000000" stroke-width="0.3" x1="78.25" y1="-72.5" x2="78.25" y2="0"/>
			<line fill="none" stroke="#000000" stroke-width="0.3" x1="102.25" y1="-72.5" x2="102.25" y2="0"/>
			<line fill="none" stroke="#000000" stroke-width="0.3" x1="126.25" y1="-72.5" x2="126.25" y2="0"/>
			<line fill="none" stroke="#000000" stroke-width="0.3" x1="90.25" y1="-72.5" x2="90.25" y2="0"/>
			<line fill="none" stroke="#000000" stroke-width="0.3" x1="114.25" y1="-72.5" x2="114.25" y2="0"/>
			<line fill="none" stroke="#000000" stroke-width="0.3" x1="138.25" y1="-72.5" x2="138.25" y2="0"/>
		</g>
		<g>
			<line fill="none" stroke="#000000" stroke-width="0.3" x1="144" y1="-78.25" x2="216.5" y2="-78.25"/>
			<line fill="none" stroke="#000000" stroke-width="0.3" x1="144" y1="-102.25" x2="216.5" y2="-102.25"/>
			<line fill="none" stroke="#000000" stroke-width="0.3" x1="144" y1="-126.25" x2="216.5" y2="-126.25"/>
			<line fill="none" stroke="#000000" stroke-width="0.3" x1="144" y1="-90.25" x2="216.5" y2="-90.25"/>
			<line fill="none" stroke="#000000" stroke-width="0.3" x1="144" y1="-114.25" x2="216.5" y2="-114.25"/>
			<line fill="none" stroke="#000000" stroke-width="0.3" x1="144" y1="-138.25" x2="216.5" y2="-138.25"/>
		</g>
		<g>
			<line fill="none" stroke="#000000" stroke-width="0.3" x1="78.25" y1="-144.5" x2="78.25" y2="-72"/>
			<line fill="none" stroke="#000000" stroke-width="0.3" x1="102.25" y1="-144.5" x2="102.25" y2="-72"/>
			<line fill="none" stroke="#000000" stroke-width="0.3" x1="126.25" y1="-144.5" x2="126.25" y2="-72"/>
			<line fill="none" stroke="#000000" stroke-width="0.3" x1="72" y1="-78.25" x2="144.5" y2="-78.25"/>
			<line fill="none" stroke="#000000" stroke-width="0.3" x1="72" y1="-102.25" x2="144.5" y2="-102.25"/>
			<line fill="none" stroke="#000000" stroke-width="0.3" x1="72" y1="-126.25" x2="144.5" y2="-126.25"/>
			<line fill="none" stroke="#000000" stroke-width="0.3" x1="72" y1="-90.25" x2="144.5" y2="-90.25"/>
			<line fill="none" stroke="#000000" stroke-width="0.3" x1="72" y1="-114.25" x2="144.5" y2="-114.25"/>
			<line fill="none" stroke="#000000" stroke-width="0.3" x1="72" y1="-138.25" x2="144.5" y2="-138.25"/>
			<line fill="none" stroke="#000000" stroke-width="0.3" x1="90.25" y1="-144.5" x2="90.25" y2="-72"/>
			<line fill="none" stroke="#000000" stroke-width="0.3" x1="114.25" y1="-144.5" x2="114.25" y2="-72"/>
			<line fill="none" stroke="#000000" stroke-width="0.3" x1="138.25" y1="-144.5" x2="138.25" y2="-72"/>
		</g>
		<g>
			<line fill="none" stroke="#000000" stroke-width="0.3" x1="0" y1="-78.25" x2="72.5" y2="-78.25"/>
			<line fill="none" stroke="#000000" stroke-width="0.3" x1="0" y1="-102.25" x2="72.5" y2="-102.25"/>
			<line fill="none" stroke="#000000" stroke-width="0.3" x1="0" y1="-126.25" x2="72.5" y2="-126.25"/>
			<line fill="none" stroke="#000000" stroke-width="0.3" x1="0" y1="-90.25" x2="72.5" y2="-90.25"/>
			<line fill="none" stroke="#000000" stroke-width="0.3" x1="0" y1="-114.25" x2="72.5" y2="-114.25"/>
			<line fill="none" stroke="#000000" stroke-width="0.3" x1="0" y1="-138.25" x2="72.5" y2="-138.25"/>
		</g>
		<g>
			<line fill="none" stroke="#000000" stroke-width="0.3" x1="78.25" y1="-216.5" x2="78.25" y2="-144"/>
			<line fill="none" stroke="#000000" stroke-width="0.3" x1="102.25" y1="-216.5" x2="102.25" y2="-144"/>
			<line fill="none" stroke="#000000" stroke-width="0.3" x1="126.25" y1="-216.5" x2="126.25" y2="-144"/>
			<line fill="none" stroke="#000000" stroke-width="0.3" x1="90.25" y1="-216.5" x2="90.25" y2="-144"/>
			<line fill="none" stroke="#000000" stroke-width="0.3" x1="114.25" y1="-216.5" x2="114.25" y2="-144"/>
			<line fill="none" stroke="#000000" stroke-width="0.3" x1="138.25" y1="-216.5" x2="138.25" y2="-144"/>
		</g>
	</g>
</pattern>
<rect x="127.304" y="-90.811" fill="#FFFFFF" stroke="#000000" stroke-width="3" stroke-miterlimit="10" width="51.5" height="51.5"/>
<g>
	<pattern  id="SVGID_1_" xlink:href="#Grid_1_pica_Lines" patternTransform="matrix(0.3426 0 0 0.3426 -5188.0186 -4853.0679)">
	</pattern>
	<path fill="url(#SVGID_1_)" d="M261.57-39.753c-2.199-0.061-4.812-1.716-5.807-3.679l-9.835-19.406
		c-0.995-1.962-0.846-5.089,0.33-6.949l11.357-17.96c1.176-1.859,3.938-3.381,6.138-3.381h21.449c2.2,0,4.897,1.56,5.995,3.467
		l11.28,19.605c1.098,1.907,1.066,5.009-0.069,6.894l-11.292,18.742c-1.136,1.884-3.864,3.376-6.063,3.315L261.57-39.753z"/>
</g>
<rect x="246.352" y="-69.877" fill="#FFFFFF" width="55.888" height="9.634"/>
<path stroke="#000000" stroke-miterlimit="10" d="M303.584-69.339l-10.941-18.946c-1.386-2.399-4.64-4.278-7.409-4.278h-21.877
	c-2.769,0-6.023,1.879-7.41,4.278l-10.938,18.946c-1.385,2.4-1.385,6.158,0,8.557l10.938,18.947c1.387,2.398,4.641,4.277,7.41,4.277
	h21.877c2.77,0,6.023-1.879,7.41-4.278l10.938-18.946C304.969-63.181,304.969-66.939,303.584-69.339z M301.852-61.782l-10.94,18.946
	c-1.026,1.776-3.627,3.278-5.678,3.278h-21.877c-2.051,0-4.651-1.502-5.678-3.278l-10.938-18.946
	c-1.026-1.776-1.026-4.779,0.001-6.557l10.938-18.945c1.026-1.777,3.627-3.278,5.678-3.278h21.877c2.051,0,4.65,1.501,5.678,3.278
	l10.94,18.946C302.877-66.561,302.877-63.559,301.852-61.782z"/>
<g>
	<g>
		<defs>
			<path id="SVGID_2_" d="M45.867-91.797c3.292,1.099,7.812,3.981,10.039,6.405c2.228,2.423,5.72,5.383,7.761,6.576
				c2.041,1.192,3.268,4.756,2.728,7.92c-0.54,3.164-0.463,8.678,0.169,12.256s-2.325,8.113-6.575,10.078
				c-4.248,1.965-7.934,4.744-8.189,6.176c-0.256,1.432-2.299,3.348-4.537,4.258c-2.239,0.912-6.503-0.185-9.475-2.437
				c-2.973-2.25-8.232-4.879-11.69-5.842s-6.91-4.091-7.671-6.952c-0.761-2.863-0.807-6.861-0.1-8.887
				c0.706-2.026,0.908-4.96,0.448-6.52c-0.46-1.559-0.112-5.248,0.772-8.197c0.884-2.95,3.07-6.663,4.858-8.254
				c1.787-1.591,5.65-2.566,8.585-2.169c2.934,0.398,5.685-0.882,6.112-2.843C39.531-92.188,42.575-92.896,45.867-91.797z"/>
		</defs>
		<clipPath id="SVGID_3_">
			<use xlink:href="#SVGID_2_"  overflow="visible"/>
		</clipPath>
		<g clip-path="url(#SVGID_3_)">
			<g>
				<path fill="none" stroke="#6D6E71" stroke-width="0.25" stroke-miterlimit="10" d="M29.628-32.858
					c-1.67-1.024-3.787-3.184-4.703-4.801c-0.916-1.616-2.459-3.688-3.429-4.604s-1.19-3.032-0.49-4.703s1.362-4.713,1.47-6.761
					c0.108-2.049,2.313-4.164,4.899-4.703s4.967-1.597,5.29-2.352c0.323-0.754,1.69-1.548,3.037-1.763
					c1.348-0.216,3.552,0.931,4.899,2.548c1.347,1.615,3.904,3.732,5.683,4.702s3.277,3.13,3.331,4.8
					c0.054,1.671-0.431,3.875-1.078,4.899s-1.131,2.61-1.078,3.526s-0.608,2.9-1.47,4.409s-2.538,3.272-3.723,3.92
					c-1.186,0.646-3.434,0.69-4.996,0.098c-1.563-0.593-3.238-0.24-3.724,0.784C33.062-31.835,31.298-31.835,29.628-32.858z"/>
			</g>
			<g>
				<path fill="none" stroke="#6D6E71" stroke-width="0.25" stroke-miterlimit="10" d="M25.492-41.429
					c-1.671-1.023-3.787-3.185-4.703-4.801c-0.917-1.617-2.459-3.689-3.43-4.605c-0.97-0.916-1.19-3.032-0.489-4.702
					c0.7-1.671,1.362-4.712,1.47-6.761c0.108-2.047,2.313-4.164,4.899-4.703s4.967-1.597,5.29-2.351
					c0.323-0.754,1.69-1.548,3.037-1.764c1.347-0.215,3.551,0.931,4.898,2.547c1.348,1.616,3.905,3.732,5.683,4.703
					c1.778,0.97,3.277,3.13,3.332,4.802c0.054,1.67-0.431,3.875-1.078,4.898c-0.646,1.023-1.131,2.61-1.078,3.526
					s-0.608,2.9-1.47,4.409c-0.862,1.509-2.537,3.272-3.723,3.919s-3.434,0.69-4.996,0.098s-3.238-0.239-3.723,0.784
					S27.162-40.405,25.492-41.429z"/>
			</g>
			<g>
				<path fill="none" stroke="#6D6E71" stroke-width="0.25" stroke-miterlimit="10" d="M22.397-49.218
					c-1.671-1.023-3.787-3.184-4.703-4.801c-0.917-1.616-2.459-3.688-3.43-4.604c-0.97-0.917-1.19-3.032-0.489-4.703
					s1.362-4.713,1.47-6.761c0.108-2.047,2.312-4.164,4.898-4.702c2.587-0.539,4.967-1.597,5.291-2.351s1.69-1.548,3.037-1.764
					s3.552,0.931,4.899,2.547c1.348,1.617,3.905,3.733,5.683,4.703c1.778,0.97,3.277,3.13,3.331,4.801
					c0.054,1.67-0.431,3.875-1.077,4.898c-0.647,1.023-1.132,2.611-1.078,3.526c0.054,0.916-0.607,2.9-1.469,4.409
					s-2.538,3.273-3.723,3.92s-3.434,0.69-4.997,0.098c-1.562-0.594-3.238-0.24-3.723,0.783S24.067-48.194,22.397-49.218z"/>
			</g>
			<g>
				<path fill="none" stroke="#6D6E71" stroke-width="0.25" stroke-miterlimit="10" d="M26.101-54.852
					c-1.671-1.024-3.787-3.185-4.704-4.801c-0.916-1.617-2.459-3.689-3.429-4.605c-0.97-0.916-1.19-3.032-0.489-4.702
					c0.701-1.67,1.362-4.712,1.47-6.761c0.108-2.048,2.312-4.164,4.898-4.703s4.967-1.597,5.29-2.351
					c0.323-0.755,1.69-1.548,3.037-1.764c1.347-0.215,3.552,0.932,4.899,2.548s3.904,3.732,5.683,4.702
					c1.778,0.97,3.277,3.13,3.332,4.801c0.054,1.67-0.431,3.875-1.078,4.898c-0.646,1.024-1.132,2.611-1.078,3.527
					c0.054,0.916-0.608,2.899-1.47,4.408s-2.538,3.273-3.723,3.92s-3.434,0.69-4.996,0.098c-1.563-0.592-3.238-0.24-3.723,0.784
					C29.535-53.827,27.771-53.827,26.101-54.852z"/>
			</g>
			<g>
				<path fill="none" stroke="#6D6E71" stroke-width="0.25" stroke-miterlimit="10" d="M30.267-61.931
					c-1.671-1.023-3.787-3.184-4.703-4.8c-0.916-1.616-2.458-3.688-3.428-4.604s-1.19-3.033-0.49-4.703
					c0.7-1.671,1.361-4.713,1.469-6.762c0.108-2.048,2.312-4.164,4.899-4.702c2.587-0.539,4.968-1.597,5.292-2.352
					c0.323-0.754,1.69-1.548,3.037-1.763c1.347-0.215,3.551,0.931,4.898,2.547c1.347,1.617,3.904,3.733,5.682,4.703
					c1.778,0.97,3.277,3.13,3.332,4.801s-0.431,3.875-1.078,4.899c-0.646,1.023-1.131,2.61-1.077,3.526
					c0.054,0.916-0.607,2.9-1.47,4.409c-0.862,1.509-2.538,3.273-3.724,3.92c-1.186,0.646-3.435,0.69-4.997,0.098
					c-1.562-0.594-3.237-0.24-3.722,0.783C33.702-60.906,31.938-60.906,30.267-61.931z"/>
			</g>
			<g>
				<path fill="none" stroke="#6D6E71" stroke-width="0.25" stroke-miterlimit="10" d="M34.836-40.149
					c-1.671-1.023-3.787-3.184-4.703-4.801c-0.917-1.616-2.459-3.688-3.43-4.605c-0.97-0.916-1.19-3.032-0.489-4.703
					c0.701-1.67,1.362-4.712,1.47-6.76c0.107-2.048,2.312-4.164,4.898-4.703c2.587-0.539,4.968-1.597,5.291-2.352
					c0.323-0.755,1.689-1.548,3.037-1.764c1.347-0.215,3.552,0.932,4.899,2.548s3.905,3.733,5.683,4.703
					c1.778,0.971,3.276,3.132,3.331,4.802s-0.431,3.874-1.078,4.898c-0.646,1.023-1.131,2.61-1.077,3.526s-0.607,2.9-1.47,4.409
					s-2.538,3.273-3.723,3.92c-1.186,0.646-3.434,0.69-4.997,0.098s-3.238-0.24-3.723,0.783
					C38.271-39.126,36.507-39.126,34.836-40.149z"/>
			</g>
			<g>
				<path fill="none" stroke="#6D6E71" stroke-width="0.25" stroke-miterlimit="10" d="M36.167-47.418
					c-1.67-1.024-3.787-3.185-4.702-4.801c-0.916-1.616-2.458-3.688-3.429-4.604c-0.97-0.916-1.19-3.033-0.49-4.703
					c0.701-1.67,1.362-4.712,1.47-6.76c0.107-2.048,2.312-4.165,4.898-4.703c2.587-0.539,4.968-1.597,5.291-2.352
					c0.324-0.754,1.69-1.548,3.037-1.763c1.347-0.215,3.551,0.931,4.898,2.547c1.348,1.616,3.905,3.732,5.683,4.703
					s3.277,3.13,3.331,4.801c0.054,1.67-0.431,3.874-1.077,4.898c-0.646,1.023-1.131,2.61-1.078,3.526s-0.608,2.9-1.471,4.409
					s-2.538,3.272-3.723,3.919s-3.434,0.691-4.997,0.098c-1.562-0.592-3.238-0.24-3.723,0.784S37.837-46.394,36.167-47.418z"/>
			</g>
			<g>
				<path fill="none" stroke="#6D6E71" stroke-width="0.25" stroke-miterlimit="10" d="M37.499-54.686
					c-1.671-1.023-3.787-3.184-4.703-4.8c-0.916-1.617-2.459-3.689-3.429-4.605s-1.19-3.032-0.49-4.702
					c0.701-1.67,1.362-4.712,1.47-6.761c0.108-2.048,2.312-4.164,4.899-4.703s4.967-1.597,5.29-2.352
					c0.323-0.755,1.69-1.548,3.037-1.764s3.552,0.931,4.899,2.548c1.347,1.616,3.904,3.733,5.683,4.703
					c1.778,0.97,3.277,3.13,3.331,4.801s-0.431,3.875-1.078,4.898c-0.646,1.024-1.131,2.611-1.078,3.526
					c0.054,0.916-0.607,2.9-1.47,4.409s-2.538,3.272-3.724,3.919s-3.434,0.691-4.996,0.099s-3.238-0.24-3.723,0.783
					C40.934-53.661,39.17-53.661,37.499-54.686z"/>
			</g>
			<g>
				<path fill="none" stroke="#6D6E71" stroke-width="0.25" stroke-miterlimit="10" d="M38.83-61.953
					c-1.671-1.024-3.787-3.185-4.703-4.801s-2.458-3.689-3.428-4.605c-0.97-0.916-1.19-3.032-0.49-4.702
					c0.7-1.67,1.361-4.712,1.469-6.761c0.108-2.048,2.312-4.164,4.899-4.702c2.586-0.539,4.967-1.597,5.291-2.352
					c0.323-0.755,1.69-1.548,3.037-1.764c1.347-0.216,3.551,0.931,4.898,2.548c1.348,1.617,3.905,3.733,5.683,4.703
					c1.778,0.97,3.277,3.13,3.331,4.8c0.054,1.67-0.431,3.875-1.077,4.898c-0.647,1.024-1.132,2.611-1.078,3.527
					c0.054,0.916-0.607,2.899-1.47,4.408c-0.862,1.509-2.538,3.273-3.723,3.92s-3.434,0.69-4.997,0.098
					c-1.562-0.593-3.238-0.24-3.723,0.784C42.264-60.929,40.5-60.929,38.83-61.953z"/>
			</g>
			<g>
				<path fill="none" stroke="#6D6E71" stroke-width="0.25" stroke-miterlimit="10" d="M40.162-69.221
					c-1.671-1.024-3.787-3.184-4.704-4.801c-0.916-1.617-2.459-3.689-3.429-4.605c-0.97-0.916-1.19-3.032-0.49-4.702
					c0.701-1.67,1.362-4.712,1.47-6.76s2.312-4.164,4.898-4.703c2.586-0.539,4.967-1.597,5.291-2.352
					c0.323-0.754,1.69-1.548,3.038-1.764c1.347-0.215,3.552,0.931,4.899,2.548c1.347,1.617,3.904,3.733,5.683,4.703
					c1.778,0.97,3.277,3.13,3.331,4.801c0.054,1.67-0.431,3.875-1.078,4.898c-0.646,1.024-1.132,2.612-1.078,3.527
					c0.054,0.916-0.608,2.9-1.471,4.409c-0.862,1.509-2.538,3.272-3.723,3.919c-1.186,0.646-3.434,0.691-4.996,0.098
					s-3.237-0.24-3.722,0.784C43.596-68.197,41.833-68.197,40.162-69.221z"/>
			</g>
			<g>
				<path fill="none" stroke="#6D6E71" stroke-width="0.25" stroke-miterlimit="10" d="M43.168-34.942
					c-1.67-1.023-3.787-3.184-4.703-4.8s-2.459-3.688-3.429-4.605c-0.97-0.916-1.191-3.032-0.49-4.702
					c0.701-1.67,1.362-4.713,1.47-6.761s2.312-4.164,4.898-4.703s4.967-1.597,5.291-2.352c0.323-0.754,1.689-1.548,3.037-1.764
					c1.347-0.215,3.552,0.931,4.899,2.548c1.347,1.616,3.905,3.732,5.683,4.703s3.277,3.131,3.331,4.801s-0.431,3.875-1.078,4.898
					S60.946-45.067,61-44.151s-0.608,2.899-1.47,4.408c-0.862,1.51-2.538,3.273-3.723,3.92s-3.434,0.69-4.996,0.098
					s-3.238-0.24-3.723,0.783S44.838-33.919,43.168-34.942z"/>
			</g>
			<g>
				<path fill="none" stroke="#6D6E71" stroke-width="0.25" stroke-miterlimit="10" d="M44.5-42.21
					c-1.671-1.023-3.787-3.184-4.703-4.801c-0.916-1.615-2.458-3.688-3.428-4.604s-1.19-3.033-0.49-4.703
					c0.7-1.672,1.361-4.713,1.469-6.762c0.108-2.048,2.312-4.164,4.898-4.702c2.586-0.539,4.967-1.597,5.291-2.352
					s1.69-1.548,3.038-1.764c1.347-0.215,3.551,0.932,4.898,2.548c1.347,1.617,3.904,3.733,5.683,4.703
					c1.778,0.969,3.277,3.129,3.331,4.801c0.054,1.67-0.431,3.875-1.078,4.898s-1.132,2.61-1.078,3.526s-0.607,2.9-1.47,4.409
					s-2.538,3.273-3.724,3.92s-3.434,0.69-4.997,0.098c-1.562-0.594-3.237-0.24-3.723,0.783C47.934-41.187,46.17-41.187,44.5-42.21z
					"/>
			</g>
			<g>
				<path fill="none" stroke="#6D6E71" stroke-width="0.25" stroke-miterlimit="10" d="M41.666-46.353
					c-1.671-1.024-3.788-3.186-4.704-4.801c-0.916-1.617-2.459-3.689-3.429-4.605c-0.97-0.916-1.19-3.033-0.49-4.703
					s1.362-4.712,1.47-6.76s2.312-4.164,4.899-4.703s4.967-1.597,5.291-2.352c0.323-0.754,1.689-1.548,3.037-1.763
					s3.551,0.931,4.898,2.547c1.347,1.616,3.904,3.733,5.683,4.703c1.779,0.97,3.278,3.131,3.332,4.802
					c0.054,1.671-0.431,3.875-1.077,4.899c-0.647,1.023-1.132,2.61-1.078,3.526c0.054,0.916-0.607,2.899-1.47,4.409
					c-0.862,1.508-2.538,3.272-3.723,3.919s-3.434,0.69-4.997,0.098c-1.562-0.593-3.237-0.24-3.723,0.784
					C45.1-45.329,43.336-45.329,41.666-46.353z"/>
			</g>
			<g>
				<path fill="none" stroke="#6D6E71" stroke-width="0.25" stroke-miterlimit="10" d="M47.163-58.828
					c-1.671-1.024-3.788-3.185-4.703-4.801c-0.916-1.617-2.459-3.689-3.429-4.605c-0.97-0.916-1.19-3.032-0.49-4.703
					s1.362-4.713,1.469-6.761c0.108-2.048,2.312-4.164,4.898-4.702c2.586-0.539,4.967-1.597,5.291-2.351
					c0.324-0.754,1.69-1.548,3.038-1.764c1.347-0.216,3.551,0.93,4.898,2.547c1.347,1.617,3.904,3.733,5.683,4.703
					c1.778,0.97,3.277,3.13,3.331,4.801c0.054,1.67-0.431,3.875-1.078,4.898s-1.131,2.611-1.078,3.527
					c0.053,0.916-0.608,2.9-1.47,4.409s-2.538,3.273-3.723,3.92c-1.186,0.646-3.435,0.691-4.997,0.098
					c-1.563-0.592-3.238-0.24-3.723,0.784C50.597-57.805,48.833-57.805,47.163-58.828z"/>
			</g>
			<g>
				<path fill="none" stroke="#6D6E71" stroke-width="0.25" stroke-miterlimit="10" d="M44.328-60.889
					c-1.671-1.023-3.787-3.184-4.704-4.8c-0.916-1.617-2.459-3.689-3.429-4.605c-0.97-0.917-1.19-3.033-0.49-4.703
					c0.701-1.671,1.362-4.713,1.47-6.761c0.107-2.048,2.312-4.164,4.898-4.703c2.586-0.539,4.967-1.597,5.291-2.351
					s1.69-1.548,3.037-1.763c1.347-0.216,3.552,0.931,4.899,2.547s3.905,3.733,5.683,4.703c1.778,0.969,3.277,3.13,3.331,4.801
					c0.054,1.67-0.431,3.875-1.078,4.899s-1.132,2.611-1.078,3.526c0.054,0.916-0.607,2.9-1.47,4.409
					c-0.862,1.509-2.538,3.273-3.723,3.919s-3.434,0.691-4.997,0.099s-3.238-0.24-3.723,0.783
					C47.762-59.865,45.999-59.865,44.328-60.889z"/>
			</g>
			<g>
				<path fill="none" stroke="#6D6E71" stroke-width="0.25" stroke-miterlimit="10" d="M45.251-45.357
					c-1.67-1.023-3.787-3.184-4.703-4.8c-0.916-1.617-2.459-3.689-3.429-4.605c-0.97-0.916-1.19-3.032-0.49-4.703
					s1.362-4.713,1.47-6.76s2.312-4.164,4.898-4.703c2.586-0.539,4.967-1.597,5.291-2.352c0.324-0.755,1.69-1.548,3.038-1.764
					c1.347-0.216,3.551,0.931,4.898,2.547s3.904,3.733,5.683,4.703c1.778,0.97,3.277,3.13,3.331,4.801
					c0.053,1.67-0.432,3.875-1.079,4.899s-1.131,2.611-1.077,3.527c0.054,0.915-0.607,2.899-1.469,4.408
					c-0.862,1.509-2.538,3.272-3.724,3.919s-3.435,0.691-4.997,0.099s-3.238-0.24-3.723,0.783
					C48.685-44.333,46.921-44.333,45.251-45.357z"/>
			</g>
			<g>
				<path fill="none" stroke="#6D6E71" stroke-width="0.25" stroke-miterlimit="10" d="M48.406-49.5
					c-1.671-1.024-3.787-3.185-4.703-4.801c-0.917-1.617-2.459-3.689-3.43-4.605c-0.97-0.917-1.19-3.032-0.489-4.703
					c0.701-1.67,1.362-4.712,1.47-6.76c0.108-2.047,2.312-4.164,4.899-4.703c2.587-0.539,4.967-1.597,5.291-2.352
					c0.323-0.755,1.689-1.548,3.037-1.764s3.552,0.931,4.899,2.548c1.348,1.616,3.905,3.733,5.683,4.703
					c1.778,0.97,3.277,3.13,3.332,4.801c0.054,1.67-0.431,3.875-1.078,4.898c-0.646,1.024-1.132,2.611-1.078,3.527
					s-0.607,2.9-1.47,4.408c-0.862,1.509-2.538,3.272-3.724,3.919c-1.185,0.647-3.434,0.691-4.996,0.099
					c-1.562-0.592-3.237-0.24-3.722,0.784C51.84-48.477,50.077-48.477,48.406-49.5z"/>
			</g>
			<g>
				<path fill="none" stroke="#6D6E71" stroke-width="0.25" stroke-miterlimit="10" d="M43.748-56.769
					c-1.671-1.023-3.787-3.185-4.703-4.801s-2.458-3.688-3.428-4.605s-1.19-3.033-0.49-4.703s1.361-4.712,1.469-6.76
					c0.108-2.048,2.312-4.164,4.899-4.703s4.968-1.597,5.292-2.351c0.323-0.754,1.69-1.547,3.037-1.763s3.551,0.931,4.898,2.547
					c1.348,1.617,3.905,3.733,5.683,4.703s3.277,3.13,3.331,4.801c0.054,1.67-0.431,3.874-1.078,4.898s-1.131,2.611-1.078,3.527
					c0.054,0.916-0.607,2.899-1.47,4.409c-0.862,1.508-2.538,3.271-3.723,3.919c-1.186,0.646-3.434,0.69-4.997,0.098
					s-3.238-0.239-3.723,0.784S45.418-55.745,43.748-56.769z"/>
			</g>
			<g>
				<path fill="none" stroke="#6D6E71" stroke-width="0.25" stroke-miterlimit="10" d="M45.08-64.036
					c-1.67-1.024-3.787-3.184-4.703-4.8c-0.916-1.616-2.459-3.689-3.429-4.605c-0.97-0.917-1.19-3.033-0.49-4.703
					c0.701-1.67,1.362-4.712,1.469-6.761c0.108-2.048,2.312-4.164,4.899-4.703c2.586-0.539,4.967-1.597,5.29-2.352
					s1.689-1.548,3.037-1.763c1.347-0.215,3.552,0.931,4.898,2.547c1.347,1.616,3.904,3.733,5.683,4.703
					c1.778,0.97,3.278,3.131,3.332,4.801c0.054,1.67-0.431,3.875-1.078,4.899s-1.132,2.611-1.078,3.527s-0.608,2.899-1.47,4.408
					c-0.862,1.509-2.537,3.273-3.723,3.919s-3.434,0.691-4.997,0.098c-1.562-0.592-3.238-0.24-3.723,0.784
					C48.514-63.013,46.75-63.013,45.08-64.036z"/>
			</g>
			<g>
				<path fill="none" stroke="#6D6E71" stroke-width="0.25" stroke-miterlimit="10" d="M33.458-69.49
					c-1.67-1.016-3.787-3.158-4.703-4.762c-0.916-1.604-2.459-3.659-3.429-4.567c-0.97-0.909-1.19-3.008-0.489-4.665
					c0.7-1.657,1.362-4.674,1.47-6.705c0.107-2.031,2.312-4.13,4.898-4.665c2.586-0.535,4.967-1.584,5.291-2.333
					c0.324-0.748,1.69-1.535,3.037-1.748c1.347-0.214,3.551,0.923,4.899,2.526c1.348,1.604,3.905,3.702,5.683,4.664
					s3.277,3.104,3.331,4.762c0.054,1.657-0.432,3.843-1.078,4.858c-0.646,1.016-1.131,2.59-1.077,3.498
					c0.054,0.909-0.607,2.877-1.469,4.373c-0.862,1.497-2.538,3.246-3.723,3.888c-1.186,0.641-3.435,0.685-4.997,0.098
					c-1.562-0.588-3.238-0.238-3.723,0.777C36.892-68.475,35.128-68.475,33.458-69.49z"/>
			</g>
		</g>
	</g>
	<g>
		<defs>
			<path id="SVGID_4_" d="M45.867-91.797c3.292,1.099,7.812,3.981,10.039,6.405c2.228,2.423,5.72,5.383,7.761,6.576
				c2.041,1.192,3.268,4.756,2.728,7.92c-0.54,3.164-0.463,8.678,0.169,12.256s-2.325,8.113-6.575,10.078
				c-4.248,1.965-7.934,4.744-8.189,6.176c-0.256,1.432-2.299,3.348-4.537,4.258c-2.239,0.912-6.503-0.185-9.475-2.437
				c-2.973-2.25-8.232-4.879-11.69-5.842s-6.91-4.091-7.671-6.952c-0.761-2.863-0.807-6.861-0.1-8.887
				c0.706-2.026,0.908-4.96,0.448-6.52c-0.46-1.559-0.112-5.248,0.772-8.197c0.884-2.95,3.07-6.663,4.858-8.254
				c1.787-1.591,5.65-2.566,8.585-2.169c2.934,0.398,5.685-0.882,6.112-2.843C39.531-92.188,42.575-92.896,45.867-91.797z"/>
		</defs>
		<clipPath id="SVGID_5_">
			<use xlink:href="#SVGID_4_"  overflow="visible"/>
		</clipPath>
	</g>
	<g>
		<defs>
			<path id="SVGID_6_" d="M45.867-91.797c3.292,1.099,7.812,3.981,10.039,6.405c2.228,2.423,5.72,5.383,7.761,6.576
				c2.041,1.192,3.268,4.756,2.728,7.92c-0.54,3.164-0.463,8.678,0.169,12.256s-2.325,8.113-6.575,10.078
				c-4.248,1.965-7.934,4.744-8.189,6.176c-0.256,1.432-2.299,3.348-4.537,4.258c-2.239,0.912-6.503-0.185-9.475-2.437
				c-2.973-2.25-8.232-4.879-11.69-5.842s-6.91-4.091-7.671-6.952c-0.761-2.863-0.807-6.861-0.1-8.887
				c0.706-2.026,0.908-4.96,0.448-6.52c-0.46-1.559-0.112-5.248,0.772-8.197c0.884-2.95,3.07-6.663,4.858-8.254
				c1.787-1.591,5.65-2.566,8.585-2.169c2.934,0.398,5.685-0.882,6.112-2.843C39.531-92.188,42.575-92.896,45.867-91.797z"/>
		</defs>
		<clipPath id="SVGID_7_">
			<use xlink:href="#SVGID_6_"  overflow="visible"/>
		</clipPath>
	</g>
</g>
<g>
	<path d="M45.355-36.765c-2.598,0-5.815-1.165-8.196-2.97c-2.843-2.153-8.037-4.749-11.34-5.668
		c-3.847-1.071-7.537-4.449-8.398-7.688c-0.823-3.092-0.856-7.264-0.078-9.498c0.626-1.794,0.828-4.542,0.435-5.882
		c-0.579-1.959-0.062-6.009,0.772-8.791c0.949-3.166,3.218-7.002,5.164-8.734c1.667-1.484,4.913-2.521,7.893-2.521
		c0.531,0,1.043,0.033,1.524,0.099c2.306,0.312,4.659-0.677,4.955-2.033c0.39-1.793,2.22-2.907,4.774-2.907
		c1.062,0,2.215,0.197,3.336,0.572c3.443,1.149,8.143,4.148,10.477,6.687c2.138,2.326,5.582,5.249,7.52,6.382
		c2.429,1.418,3.848,5.371,3.229,8.995c-0.516,3.021-0.439,8.469,0.168,11.899c0.712,4.023-2.501,9.049-7.162,11.205
		c-4.656,2.153-7.466,4.705-7.603,5.413c-0.369,2.058-2.938,4.132-5.169,5.041C47.007-36.897,46.233-36.765,45.355-36.765z
		 M31.606-86.432c-2.473,0-5.21,0.838-6.508,1.994c-1.643,1.461-3.727,5.021-4.553,7.775c-0.894,2.985-1.124,6.403-0.771,7.604
		c0.521,1.77,0.317,4.915-0.465,7.157c-0.639,1.832-0.582,5.621,0.124,8.276c0.667,2.508,3.846,5.354,6.943,6.215
		c3.572,0.995,8.974,3.695,12.04,6.018c2.01,1.521,4.798,2.546,6.938,2.546c0.598,0,1.122-0.085,1.515-0.244
		c2.026-0.825,3.731-2.517,3.904-3.478c0.411-2.303,5.475-5.411,8.778-6.938c3.793-1.754,6.533-5.853,5.985-8.949
		c-0.652-3.685-0.728-9.344-0.169-12.613c0.467-2.734-0.553-5.869-2.227-6.848c-2.12-1.239-5.71-4.276-8.003-6.77
		c-2.097-2.281-6.493-5.084-9.601-6.121c-0.913-0.304-1.837-0.466-2.678-0.466c-1.496,0-2.572,0.498-2.739,1.269
		c-0.48,2.198-2.971,3.734-6.06,3.734l0,0c-0.402,0-0.81-0.027-1.21-0.082C32.462-86.406,32.044-86.432,31.606-86.432z"/>
</g>
<rect x="32.169" y="-69.661" fill="#FFFFFF" width="20.656" height="9.201"/>
<g>
	<g>
		<line fill="none" stroke="#000000" stroke-miterlimit="10" x1="179.262" y1="-65.061" x2="241.677" y2="-65.061"/>
		<g>
			<polygon points="238.365,-60.971 237.682,-61.703 241.294,-65.06 237.682,-68.417 238.365,-69.149 242.762,-65.06 			"/>
		</g>
	</g>
</g>
<rect x="130.575" y="-70.311" fill="#FFFFFF" width="45" height="10.5"/>
<rect x="127.512" y="-69.186" fill="none" width="51" height="8.25"/>
<text transform="matrix(1 0 0 1 140.2593 -62.6875)" font-family="'TradeGothicLTStd-Bd2'" font-size="9">design</text>
<rect x="17.512" y="-69.186" fill="none" width="51" height="8.25"/>
<text transform="matrix(1 0 0 1 34.5117 -62.6875)" font-family="'TradeGothicLTStd-Bd2'" font-size="9">data</text>
<rect x="248.512" y="-69.186" fill="none" width="51" height="8.25"/>
<text transform="matrix(1 0 0 1 249.7617 -62.6875)" font-family="'TradeGothicLTStd-Bd2'" font-size="9">visualization</text>
<line fill="none" stroke="#000000" stroke-miterlimit="10" x1="65.092" y1="-65.061" x2="127.304" y2="-65.061"/>
<rect x="115.825" y="55.172" fill="none" stroke="#EF4136" stroke-miterlimit="10" width="60.709" height="72.708"/>
<rect x="120.43" y="71.776" fill="#FFFFFF" stroke="#000000" stroke-width="3" stroke-miterlimit="10" width="51.5" height="51.5"/>
<g>
	<path fill="#EF4136" d="M280.334,129.99H254.51c-3.27,0-7.111-2.219-8.748-5.05l-12.912-22.364c-1.634-2.831-1.634-7.268,0-10.101
		l12.912-22.363c1.637-2.832,5.479-5.05,8.748-5.05h25.824c3.268,0,7.109,2.218,8.744,5.05l12.914,22.363
		c1.635,2.833,1.635,7.27,0,10.101l-12.914,22.364C287.443,127.771,283.602,129.99,280.334,129.99z M254.51,67.423
		c-2.422,0-5.492,1.772-6.703,3.87l-12.912,22.363c-1.211,2.099-1.211,5.643,0,7.739l12.912,22.364
		c1.211,2.098,4.281,3.869,6.703,3.869h25.824c2.42,0,5.488-1.771,6.701-3.869l12.912-22.364c1.211-2.097,1.211-5.641,0-7.739
		l-12.914-22.364c-1.211-2.097-4.279-3.869-6.699-3.869H254.51z"/>
</g>
<g>
	<g>
		<defs>
			<path id="SVGID_8_" d="M38.992,70.79c3.292,1.099,7.812,3.981,10.039,6.405c2.228,2.423,5.72,5.383,7.761,6.576
				c2.041,1.192,3.268,4.756,2.728,7.92c-0.54,3.164-0.463,8.678,0.169,12.257c0.633,3.578-2.325,8.112-6.575,10.077
				c-4.248,1.965-7.934,4.745-8.189,6.176c-0.256,1.432-2.299,3.348-4.537,4.259c-2.239,0.911-6.503-0.185-9.475-2.437
				c-2.973-2.25-8.232-4.879-11.69-5.842s-6.91-4.091-7.671-6.953c-0.761-2.863-0.807-6.861-0.1-8.887
				c0.706-2.025,0.908-4.96,0.448-6.52c-0.46-1.559-0.112-5.248,0.772-8.197c0.884-2.95,3.07-6.663,4.858-8.254
				c1.787-1.591,5.65-2.566,8.585-2.169c2.934,0.398,5.685-0.882,6.112-2.843C32.656,70.398,35.7,69.691,38.992,70.79z"/>
		</defs>
		<clipPath id="SVGID_9_">
			<use xlink:href="#SVGID_8_"  overflow="visible"/>
		</clipPath>
		<g clip-path="url(#SVGID_9_)">
			<g>
				<path fill="none" stroke="#BCBEC0" stroke-width="0.25" stroke-miterlimit="10" d="M22.754,129.728
					c-1.67-1.024-3.787-3.184-4.703-4.8c-0.916-1.617-2.459-3.688-3.429-4.605s-1.19-3.033-0.49-4.704
					c0.7-1.67,1.362-4.713,1.47-6.761c0.108-2.048,2.313-4.164,4.899-4.703s4.967-1.597,5.29-2.351
					c0.323-0.755,1.69-1.548,3.037-1.764c1.348-0.215,3.552,0.932,4.899,2.548s3.904,3.732,5.683,4.702
					c1.778,0.97,3.277,3.13,3.331,4.801s-0.431,3.875-1.078,4.899s-1.131,2.611-1.078,3.527c0.054,0.916-0.608,2.899-1.47,4.408
					c-0.862,1.509-2.538,3.273-3.723,3.92c-1.186,0.647-3.434,0.691-4.996,0.098c-1.563-0.593-3.238-0.241-3.724,0.783
					S24.424,130.751,22.754,129.728z"/>
			</g>
			<g>
				<path fill="none" stroke="#BCBEC0" stroke-width="0.25" stroke-miterlimit="10" d="M18.617,121.157
					c-1.671-1.023-3.787-3.184-4.703-4.801c-0.917-1.616-2.459-3.688-3.43-4.604c-0.97-0.917-1.19-3.033-0.489-4.703
					c0.7-1.67,1.362-4.712,1.47-6.76c0.108-2.048,2.313-4.164,4.899-4.703s4.967-1.597,5.29-2.352
					c0.323-0.754,1.69-1.547,3.037-1.763c1.347-0.216,3.551,0.931,4.898,2.547c1.348,1.616,3.905,3.732,5.683,4.703
					s3.277,3.13,3.332,4.801c0.054,1.671-0.431,3.875-1.078,4.898c-0.646,1.024-1.131,2.611-1.078,3.527s-0.608,2.9-1.47,4.409
					c-0.862,1.509-2.537,3.272-3.723,3.919s-3.434,0.69-4.996,0.098s-3.238-0.24-3.723,0.784
					C22.051,122.181,20.288,122.181,18.617,121.157z"/>
			</g>
			<g>
				<path fill="none" stroke="#BCBEC0" stroke-width="0.25" stroke-miterlimit="10" d="M15.522,113.369
					c-1.671-1.024-3.787-3.185-4.703-4.801c-0.917-1.617-2.459-3.689-3.43-4.605c-0.97-0.916-1.19-3.032-0.489-4.703
					c0.701-1.67,1.362-4.712,1.47-6.76c0.108-2.048,2.312-4.164,4.898-4.703c2.587-0.539,4.967-1.597,5.291-2.351
					s1.69-1.548,3.037-1.764s3.552,0.931,4.899,2.548c1.348,1.617,3.905,3.733,5.683,4.703c1.778,0.97,3.277,3.13,3.331,4.8
					c0.054,1.67-0.431,3.875-1.077,4.898c-0.647,1.024-1.132,2.611-1.078,3.527c0.054,0.916-0.607,2.9-1.469,4.409
					s-2.538,3.273-3.723,3.919s-3.434,0.691-4.997,0.098c-1.562-0.593-3.238-0.24-3.723,0.784
					C18.957,114.393,17.193,114.393,15.522,113.369z"/>
			</g>
			<g>
				<path fill="none" stroke="#BCBEC0" stroke-width="0.25" stroke-miterlimit="10" d="M19.226,107.735
					c-1.671-1.024-3.787-3.184-4.704-4.801c-0.916-1.617-2.459-3.689-3.429-4.605c-0.97-0.916-1.19-3.032-0.489-4.703
					c0.701-1.67,1.362-4.712,1.47-6.76c0.108-2.048,2.312-4.165,4.898-4.703s4.967-1.597,5.29-2.352
					c0.323-0.754,1.69-1.548,3.037-1.763c1.347-0.215,3.552,0.931,4.899,2.547s3.904,3.732,5.683,4.703
					c1.778,0.97,3.277,3.13,3.332,4.8c0.054,1.67-0.431,3.875-1.078,4.899c-0.646,1.024-1.132,2.611-1.078,3.526
					c0.054,0.916-0.608,2.9-1.47,4.409s-2.538,3.273-3.723,3.919s-3.434,0.691-4.996,0.099c-1.563-0.593-3.238-0.24-3.723,0.784
					C22.66,108.759,20.897,108.759,19.226,107.735z"/>
			</g>
			<g>
				<path fill="none" stroke="#BCBEC0" stroke-width="0.25" stroke-miterlimit="10" d="M23.393,100.656
					c-1.671-1.024-3.787-3.185-4.703-4.801c-0.916-1.616-2.458-3.688-3.428-4.604s-1.19-3.033-0.49-4.704
					c0.7-1.67,1.361-4.713,1.469-6.761s2.312-4.164,4.899-4.703c2.587-0.538,4.968-1.596,5.292-2.351
					c0.323-0.755,1.69-1.548,3.037-1.764c1.347-0.215,3.551,0.931,4.898,2.548c1.347,1.616,3.904,3.732,5.682,4.702
					c1.778,0.97,3.277,3.13,3.332,4.801s-0.431,3.875-1.078,4.898c-0.646,1.024-1.131,2.611-1.077,3.526
					c0.054,0.916-0.607,2.9-1.47,4.409c-0.862,1.509-2.538,3.273-3.724,3.92c-1.186,0.647-3.435,0.691-4.997,0.098
					c-1.562-0.593-3.237-0.24-3.722,0.784C26.827,101.68,25.063,101.68,23.393,100.656z"/>
			</g>
			<g>
				<path fill="none" stroke="#BCBEC0" stroke-width="0.25" stroke-miterlimit="10" d="M27.962,122.438
					c-1.671-1.024-3.787-3.184-4.703-4.801c-0.917-1.617-2.459-3.689-3.43-4.605c-0.97-0.917-1.19-3.033-0.489-4.703
					s1.362-4.712,1.47-6.76c0.107-2.048,2.312-4.164,4.898-4.703c2.587-0.539,4.968-1.598,5.291-2.352
					c0.323-0.754,1.689-1.548,3.037-1.763c1.347-0.215,3.552,0.931,4.899,2.547s3.905,3.733,5.683,4.704
					c1.778,0.97,3.276,3.131,3.331,4.801c0.054,1.67-0.431,3.875-1.078,4.898s-1.131,2.611-1.077,3.527s-0.607,2.9-1.47,4.409
					s-2.538,3.273-3.723,3.919c-1.186,0.646-3.434,0.691-4.997,0.098s-3.238-0.24-3.723,0.784
					C31.396,123.461,29.633,123.461,27.962,122.438z"/>
			</g>
			<g>
				<path fill="none" stroke="#BCBEC0" stroke-width="0.25" stroke-miterlimit="10" d="M29.292,115.168
					c-1.67-1.024-3.787-3.184-4.702-4.8c-0.916-1.617-2.458-3.689-3.429-4.605c-0.97-0.916-1.19-3.032-0.49-4.702
					c0.701-1.67,1.362-4.713,1.47-6.761c0.107-2.048,2.312-4.164,4.898-4.703c2.587-0.539,4.968-1.597,5.291-2.351
					c0.324-0.754,1.69-1.548,3.037-1.763c1.347-0.215,3.551,0.932,4.898,2.548c1.348,1.616,3.905,3.732,5.683,4.703
					s3.277,3.13,3.331,4.8c0.054,1.67-0.431,3.875-1.077,4.898c-0.646,1.024-1.131,2.611-1.078,3.527
					c0.053,0.916-0.608,2.899-1.471,4.408c-0.862,1.509-2.538,3.273-3.723,3.919s-3.434,0.691-4.997,0.098
					c-1.562-0.593-3.238-0.24-3.723,0.784S30.963,116.192,29.292,115.168z"/>
			</g>
			<g>
				<path fill="none" stroke="#BCBEC0" stroke-width="0.25" stroke-miterlimit="10" d="M30.625,107.901
					c-1.671-1.024-3.787-3.184-4.703-4.801c-0.916-1.616-2.459-3.688-3.429-4.604c-0.97-0.917-1.19-3.033-0.49-4.703
					c0.701-1.67,1.362-4.712,1.47-6.76s2.312-4.165,4.899-4.704s4.967-1.597,5.29-2.352c0.323-0.754,1.69-1.548,3.037-1.763
					s3.552,0.931,4.899,2.547c1.347,1.617,3.904,3.733,5.683,4.703c1.778,0.97,3.277,3.131,3.331,4.801s-0.431,3.875-1.078,4.899
					c-0.646,1.023-1.131,2.61-1.078,3.526c0.054,0.916-0.607,2.899-1.47,4.408c-0.863,1.509-2.538,3.273-3.724,3.92
					s-3.434,0.691-4.996,0.098s-3.238-0.24-3.723,0.784C34.059,108.925,32.295,108.925,30.625,107.901z"/>
			</g>
			<g>
				<path fill="none" stroke="#BCBEC0" stroke-width="0.25" stroke-miterlimit="10" d="M31.955,100.633
					c-1.671-1.024-3.787-3.185-4.703-4.801s-2.458-3.689-3.428-4.605c-0.97-0.916-1.19-3.032-0.49-4.703
					c0.7-1.67,1.361-4.712,1.469-6.76s2.312-4.164,4.899-4.703c2.586-0.538,4.967-1.597,5.291-2.351
					c0.323-0.754,1.69-1.548,3.037-1.764c1.347-0.215,3.551,0.931,4.898,2.548c1.348,1.617,3.905,3.733,5.683,4.703
					c1.778,0.97,3.277,3.13,3.331,4.8c0.054,1.67-0.431,3.875-1.077,4.899c-0.647,1.024-1.132,2.611-1.078,3.527
					c0.054,0.916-0.607,2.9-1.47,4.409c-0.862,1.509-2.538,3.272-3.723,3.919s-3.434,0.691-4.997,0.098
					c-1.562-0.593-3.238-0.24-3.723,0.784C35.39,101.657,33.626,101.657,31.955,100.633z"/>
			</g>
			<g>
				<path fill="none" stroke="#BCBEC0" stroke-width="0.25" stroke-miterlimit="10" d="M33.288,93.365
					c-1.671-1.023-3.787-3.184-4.704-4.801c-0.916-1.617-2.459-3.689-3.429-4.605c-0.97-0.916-1.19-3.032-0.49-4.703
					c0.701-1.67,1.362-4.712,1.47-6.76s2.312-4.164,4.898-4.703c2.586-0.539,4.967-1.597,5.291-2.352
					c0.323-0.755,1.69-1.548,3.038-1.764c1.347-0.216,3.552,0.931,4.899,2.547c1.347,1.617,3.904,3.733,5.683,4.703
					c1.778,0.97,3.277,3.13,3.331,4.8c0.054,1.67-0.431,3.875-1.078,4.899c-0.646,1.024-1.132,2.611-1.078,3.527
					c0.054,0.916-0.608,2.899-1.471,4.408c-0.862,1.509-2.538,3.272-3.723,3.919c-1.186,0.647-3.434,0.691-4.996,0.099
					s-3.237-0.24-3.722,0.783C36.722,94.389,34.958,94.389,33.288,93.365z"/>
			</g>
			<g>
				<path fill="none" stroke="#BCBEC0" stroke-width="0.25" stroke-miterlimit="10" d="M36.294,127.644
					c-1.67-1.023-3.787-3.184-4.703-4.8c-0.916-1.616-2.459-3.688-3.429-4.604c-0.97-0.917-1.191-3.033-0.49-4.703
					c0.701-1.67,1.362-4.712,1.47-6.76s2.312-4.165,4.898-4.704s4.967-1.597,5.291-2.351c0.323-0.754,1.689-1.548,3.037-1.764
					c1.347-0.216,3.552,0.93,4.899,2.547s3.905,3.733,5.683,4.704s3.277,3.131,3.331,4.801c0.054,1.67-0.431,3.875-1.078,4.898
					c-0.646,1.023-1.131,2.611-1.078,3.526c0.054,0.916-0.608,2.9-1.47,4.409c-0.862,1.509-2.538,3.272-3.723,3.919
					s-3.434,0.691-4.996,0.098s-3.238-0.24-3.723,0.783S37.964,128.667,36.294,127.644z"/>
			</g>
			<g>
				<path fill="none" stroke="#BCBEC0" stroke-width="0.25" stroke-miterlimit="10" d="M37.625,120.376
					c-1.671-1.024-3.787-3.184-4.703-4.8c-0.916-1.616-2.458-3.688-3.428-4.604c-0.97-0.916-1.19-3.032-0.49-4.703
					s1.361-4.713,1.469-6.761s2.312-4.164,4.898-4.703c2.586-0.538,4.967-1.597,5.291-2.351s1.69-1.548,3.038-1.763
					c1.347-0.215,3.551,0.931,4.898,2.548c1.347,1.616,3.904,3.732,5.683,4.702c1.778,0.97,3.277,3.13,3.331,4.801
					c0.054,1.671-0.431,3.875-1.078,4.898c-0.646,1.024-1.132,2.611-1.078,3.527s-0.607,2.9-1.47,4.409s-2.538,3.273-3.724,3.919
					c-1.186,0.647-3.434,0.691-4.997,0.098c-1.562-0.593-3.237-0.24-3.723,0.784C41.059,121.4,39.296,121.4,37.625,120.376z"/>
			</g>
			<g>
				<path fill="none" stroke="#BCBEC0" stroke-width="0.25" stroke-miterlimit="10" d="M34.791,116.233
					c-1.671-1.024-3.788-3.185-4.704-4.801c-0.916-1.616-2.459-3.688-3.429-4.605c-0.97-0.917-1.19-3.033-0.49-4.703
					s1.362-4.712,1.47-6.76s2.312-4.164,4.899-4.703s4.967-1.597,5.291-2.352c0.323-0.754,1.689-1.548,3.037-1.763
					s3.551,0.931,4.898,2.547c1.347,1.616,3.904,3.733,5.683,4.703c1.779,0.97,3.278,3.13,3.332,4.801
					c0.054,1.671-0.431,3.875-1.077,4.899c-0.647,1.024-1.132,2.611-1.078,3.527c0.054,0.916-0.607,2.9-1.47,4.409
					c-0.862,1.509-2.538,3.273-3.723,3.919s-3.434,0.69-4.997,0.098c-1.562-0.593-3.237-0.24-3.723,0.784
					C38.225,117.257,36.461,117.257,34.791,116.233z"/>
			</g>
			<g>
				<path fill="none" stroke="#BCBEC0" stroke-width="0.25" stroke-miterlimit="10" d="M40.288,103.758
					c-1.671-1.023-3.788-3.184-4.703-4.8c-0.916-1.617-2.459-3.689-3.429-4.605c-0.97-0.916-1.19-3.032-0.49-4.703
					s1.362-4.713,1.469-6.761c0.108-2.048,2.312-4.164,4.898-4.703c2.586-0.538,4.967-1.596,5.291-2.351
					c0.324-0.754,1.69-1.548,3.038-1.764c1.347-0.215,3.551,0.931,4.898,2.547c1.347,1.617,3.904,3.733,5.683,4.703
					c1.778,0.97,3.277,3.13,3.331,4.8c0.054,1.67-0.431,3.875-1.078,4.899s-1.131,2.611-1.078,3.527
					c0.053,0.916-0.608,2.9-1.47,4.409s-2.538,3.273-3.723,3.919c-1.186,0.647-3.435,0.691-4.997,0.099
					c-1.563-0.593-3.238-0.24-3.723,0.783C43.722,104.782,41.958,104.782,40.288,103.758z"/>
			</g>
			<g>
				<path fill="none" stroke="#BCBEC0" stroke-width="0.25" stroke-miterlimit="10" d="M37.454,101.698
					c-1.671-1.023-3.787-3.184-4.704-4.8c-0.916-1.617-2.459-3.689-3.429-4.605c-0.97-0.916-1.19-3.032-0.49-4.703
					c0.701-1.67,1.362-4.712,1.47-6.76c0.107-2.048,2.312-4.164,4.898-4.703c2.586-0.539,4.967-1.597,5.291-2.352
					s1.69-1.548,3.037-1.764c1.347-0.215,3.552,0.931,4.899,2.548s3.905,3.733,5.683,4.702c1.778,0.97,3.277,3.13,3.331,4.801
					c0.054,1.671-0.431,3.876-1.078,4.9s-1.132,2.611-1.078,3.527c0.054,0.916-0.607,2.899-1.47,4.408
					c-0.862,1.509-2.538,3.273-3.723,3.919s-3.434,0.691-4.997,0.098c-1.562-0.592-3.238-0.24-3.723,0.784
					C40.888,102.721,39.125,102.721,37.454,101.698z"/>
			</g>
			<g>
				<path fill="none" stroke="#BCBEC0" stroke-width="0.25" stroke-miterlimit="10" d="M38.376,117.229
					c-1.67-1.024-3.787-3.184-4.703-4.801c-0.916-1.616-2.459-3.688-3.429-4.604c-0.97-0.917-1.19-3.033-0.49-4.704
					s1.362-4.713,1.47-6.76s2.312-4.164,4.898-4.703c2.586-0.539,4.967-1.597,5.291-2.352c0.324-0.754,1.69-1.548,3.038-1.764
					c1.347-0.215,3.551,0.931,4.898,2.548s3.904,3.733,5.683,4.703c1.778,0.97,3.277,3.13,3.331,4.8s-0.432,3.875-1.079,4.899
					c-0.646,1.024-1.131,2.612-1.077,3.527c0.054,0.916-0.607,2.9-1.469,4.409c-0.862,1.509-2.538,3.272-3.724,3.919
					c-1.186,0.646-3.435,0.691-4.997,0.098s-3.238-0.24-3.723,0.784C41.811,118.253,40.047,118.253,38.376,117.229z"/>
			</g>
			<g>
				<path fill="none" stroke="#BCBEC0" stroke-width="0.25" stroke-miterlimit="10" d="M41.531,113.086
					c-1.671-1.023-3.787-3.184-4.703-4.801c-0.917-1.617-2.459-3.689-3.43-4.605c-0.97-0.916-1.19-3.032-0.489-4.702
					c0.701-1.67,1.362-4.712,1.47-6.76c0.108-2.048,2.312-4.164,4.899-4.703c2.587-0.54,4.967-1.598,5.291-2.353
					c0.323-0.754,1.689-1.548,3.037-1.763s3.552,0.931,4.899,2.547c1.348,1.617,3.905,3.733,5.683,4.703
					c1.778,0.97,3.277,3.131,3.332,4.801c0.054,1.67-0.431,3.875-1.078,4.899c-0.646,1.024-1.132,2.611-1.078,3.527
					c0.054,0.916-0.607,2.899-1.47,4.408c-0.862,1.508-2.538,3.272-3.724,3.919c-1.185,0.646-3.434,0.691-4.996,0.099
					c-1.562-0.593-3.237-0.24-3.722,0.783C44.966,114.11,43.202,114.11,41.531,113.086z"/>
			</g>
			<g>
				<path fill="none" stroke="#BCBEC0" stroke-width="0.25" stroke-miterlimit="10" d="M36.873,105.817
					c-1.671-1.023-3.787-3.184-4.703-4.8s-2.458-3.688-3.428-4.605s-1.19-3.033-0.49-4.703s1.361-4.712,1.469-6.76
					c0.108-2.048,2.312-4.164,4.899-4.703s4.968-1.597,5.292-2.351c0.323-0.754,1.69-1.548,3.037-1.764s3.551,0.931,4.898,2.547
					c1.348,1.617,3.905,3.733,5.683,4.703s3.277,3.13,3.331,4.8c0.054,1.67-0.431,3.875-1.078,4.898s-1.131,2.611-1.078,3.526
					c0.054,0.916-0.607,2.9-1.47,4.409s-2.538,3.272-3.723,3.919c-1.186,0.647-3.434,0.691-4.997,0.098s-3.238-0.24-3.723,0.784
					C40.308,106.841,38.543,106.841,36.873,105.817z"/>
			</g>
			<g>
				<path fill="none" stroke="#BCBEC0" stroke-width="0.25" stroke-miterlimit="10" d="M38.205,98.55
					c-1.67-1.023-3.787-3.184-4.703-4.8c-0.916-1.616-2.459-3.689-3.429-4.605c-0.97-0.916-1.19-3.033-0.49-4.703
					c0.701-1.67,1.362-4.712,1.469-6.76c0.108-2.048,2.312-4.165,4.899-4.704c2.586-0.539,4.967-1.597,5.29-2.352
					s1.689-1.548,3.037-1.763c1.347-0.215,3.552,0.932,4.898,2.548c1.347,1.616,3.904,3.733,5.683,4.703
					c1.778,0.97,3.278,3.13,3.332,4.801c0.054,1.67-0.431,3.875-1.078,4.898s-1.132,2.611-1.078,3.527s-0.608,2.899-1.47,4.409
					c-0.862,1.509-2.537,3.272-3.723,3.919s-3.434,0.691-4.997,0.099c-1.562-0.593-3.238-0.24-3.723,0.783
					C41.639,99.574,39.876,99.574,38.205,98.55z"/>
			</g>
			<g>
				<path fill="none" stroke="#BCBEC0" stroke-width="0.25" stroke-miterlimit="10" d="M26.583,93.096
					c-1.67-1.015-3.787-3.158-4.703-4.761c-0.916-1.604-2.459-3.659-3.429-4.568c-0.97-0.908-1.19-3.007-0.489-4.664
					c0.7-1.657,1.362-4.674,1.47-6.705c0.107-2.031,2.312-4.13,4.898-4.665c2.586-0.535,4.967-1.584,5.291-2.332
					s1.69-1.535,3.037-1.749c1.347-0.213,3.551,0.924,4.899,2.527c1.348,1.603,3.905,3.702,5.683,4.664s3.277,3.104,3.331,4.761
					c0.054,1.657-0.432,3.844-1.078,4.859c-0.646,1.015-1.131,2.589-1.077,3.498c0.054,0.908-0.607,2.876-1.469,4.373
					c-0.862,1.496-2.538,3.246-3.723,3.887c-1.186,0.642-3.435,0.686-4.997,0.098c-1.562-0.587-3.238-0.238-3.723,0.777
					C30.017,94.111,28.253,94.111,26.583,93.096z"/>
			</g>
		</g>
	</g>
	<g>
		<defs>
			<path id="SVGID_10_" d="M38.992,70.79c3.292,1.099,7.812,3.981,10.039,6.405c2.228,2.423,5.72,5.383,7.761,6.576
				c2.041,1.192,3.268,4.756,2.728,7.92c-0.54,3.164-0.463,8.678,0.169,12.257c0.633,3.578-2.325,8.112-6.575,10.077
				c-4.248,1.965-7.934,4.745-8.189,6.176c-0.256,1.432-2.299,3.348-4.537,4.259c-2.239,0.911-6.503-0.185-9.475-2.437
				c-2.973-2.25-8.232-4.879-11.69-5.842s-6.91-4.091-7.671-6.953c-0.761-2.863-0.807-6.861-0.1-8.887
				c0.706-2.025,0.908-4.96,0.448-6.52c-0.46-1.559-0.112-5.248,0.772-8.197c0.884-2.95,3.07-6.663,4.858-8.254
				c1.787-1.591,5.65-2.566,8.585-2.169c2.934,0.398,5.685-0.882,6.112-2.843C32.656,70.398,35.7,69.691,38.992,70.79z"/>
		</defs>
		<clipPath id="SVGID_11_">
			<use xlink:href="#SVGID_10_"  overflow="visible"/>
		</clipPath>
	</g>
	<g>
		<defs>
			<path id="SVGID_12_" d="M38.992,70.79c3.292,1.099,7.812,3.981,10.039,6.405c2.228,2.423,5.72,5.383,7.761,6.576
				c2.041,1.192,3.268,4.756,2.728,7.92c-0.54,3.164-0.463,8.678,0.169,12.257c0.633,3.578-2.325,8.112-6.575,10.077
				c-4.248,1.965-7.934,4.745-8.189,6.176c-0.256,1.432-2.299,3.348-4.537,4.259c-2.239,0.911-6.503-0.185-9.475-2.437
				c-2.973-2.25-8.232-4.879-11.69-5.842s-6.91-4.091-7.671-6.953c-0.761-2.863-0.807-6.861-0.1-8.887
				c0.706-2.025,0.908-4.96,0.448-6.52c-0.46-1.559-0.112-5.248,0.772-8.197c0.884-2.95,3.07-6.663,4.858-8.254
				c1.787-1.591,5.65-2.566,8.585-2.169c2.934,0.398,5.685-0.882,6.112-2.843C32.656,70.398,35.7,69.691,38.992,70.79z"/>
		</defs>
		<clipPath id="SVGID_13_">
			<use xlink:href="#SVGID_12_"  overflow="visible"/>
		</clipPath>
	</g>
</g>
<g>
	<path d="M38.481,125.821c-2.598,0-5.815-1.164-8.196-2.969c-2.843-2.153-8.037-4.749-11.34-5.668
		c-3.847-1.071-7.537-4.449-8.398-7.688c-0.823-3.092-0.856-7.264-0.078-9.499c0.626-1.793,0.828-4.542,0.435-5.881
		c-0.579-1.959-0.062-6.009,0.772-8.791c0.949-3.166,3.218-7.002,5.164-8.734c1.667-1.484,4.913-2.521,7.893-2.521
		c0.531,0,1.043,0.033,1.524,0.099c2.306,0.312,4.659-0.677,4.955-2.033c0.39-1.793,2.22-2.907,4.774-2.907
		c1.062,0,2.215,0.197,3.336,0.572c3.443,1.149,8.143,4.148,10.477,6.687c2.138,2.326,5.582,5.249,7.52,6.382
		c2.429,1.418,3.848,5.371,3.229,8.995c-0.516,3.021-0.439,8.47,0.168,11.899c0.712,4.023-2.501,9.049-7.162,11.204
		c-4.656,2.154-7.466,4.706-7.603,5.414c-0.369,2.058-2.938,4.132-5.169,5.042C40.132,125.688,39.358,125.821,38.481,125.821z
		 M24.732,76.154c-2.473,0-5.21,0.838-6.508,1.994c-1.643,1.461-3.727,5.021-4.553,7.775c-0.894,2.985-1.124,6.403-0.771,7.604
		c0.521,1.77,0.317,4.915-0.465,7.157c-0.639,1.832-0.582,5.621,0.124,8.276c0.667,2.508,3.846,5.354,6.943,6.216
		c3.572,0.995,8.974,3.694,12.04,6.017c2.01,1.522,4.798,2.546,6.938,2.546c0.598,0,1.122-0.084,1.515-0.244
		c2.026-0.825,3.731-2.516,3.904-3.478c0.411-2.302,5.475-5.411,8.778-6.938c3.793-1.754,6.533-5.853,5.985-8.949
		c-0.652-3.685-0.728-9.344-0.169-12.613c0.467-2.734-0.553-5.869-2.227-6.848c-2.12-1.239-5.71-4.276-8.003-6.77
		c-2.097-2.281-6.493-5.084-9.601-6.121c-0.913-0.304-1.837-0.466-2.678-0.466c-1.496,0-2.572,0.498-2.739,1.269
		c-0.48,2.198-2.971,3.734-6.06,3.734l0,0c-0.402,0-0.81-0.027-1.21-0.082C25.587,76.18,25.17,76.154,24.732,76.154z"/>
</g>
<rect x="25.294" y="93.099" fill="#FFFFFF" width="20.656" height="9.201"/>
<g>
	<g>
		<line fill="none" stroke="#EF4136" stroke-miterlimit="10" x1="176.388" y1="97.526" x2="230.803" y2="97.526"/>
		<g>
			<polygon fill="#EF4136" points="227.49,101.616 226.808,100.883 230.419,97.527 226.808,94.169 227.49,93.437 231.888,97.527 			
				"/>
		</g>
	</g>
</g>
<rect x="128.7" y="92.276" fill="#FFFFFF" width="35" height="10.5"/>
<rect x="120.638" y="93.401" fill="none" width="51" height="8.25"/>
<text transform="matrix(1 0 0 1 133.3848 99.8989)" font-family="'TradeGothicLTStd-Bd2'" font-size="9">design</text>
<g>
	<circle fill="#EF4136" cx="146.022" cy="55.227" r="12.75"/>
	<g>
		<path fill="#FFFFFF" d="M141.184,58.477v-6.5h4.303v1.044h-3.061v1.548h2.224v1.044h-2.224v1.818h3.16v1.044H141.184z"/>
		<path fill="#FFFFFF" d="M146.107,51.977h1.35l0.973,2.008l0.972-2.008h1.351l-1.648,3.169l1.756,3.331h-1.351l-1.08-2.206
			l-1.081,2.206h-1.351l1.756-3.331L146.107,51.977z"/>
	</g>
</g>
<rect x="10.638" y="93.401" fill="none" width="51" height="8.25"/>
<text transform="matrix(1 0 0 1 27.6372 99.8989)" font-family="'TradeGothicLTStd-Bd2'" font-size="9">data</text>
<line fill="none" stroke="#EF4136" stroke-miterlimit="10" x1="58.217" y1="97.213" x2="115.43" y2="97.213"/>
<g>
	<g>
		<pattern  id="SVGID_14_" xlink:href="#Grid_1_pica_Lines" patternTransform="matrix(0.3426 0 0 0.3426 -5219.5591 -4961.8042)">
		</pattern>
		<path fill="url(#SVGID_14_)" d="M254.696,122.833c-2.199-0.061-4.812-1.716-5.807-3.679l-9.835-19.406
			c-0.995-1.962-0.846-5.089,0.33-6.949l11.357-17.96c1.176-1.859,3.938-3.381,6.138-3.381h21.449c2.2,0,4.897,1.56,5.995,3.467
			l11.28,19.605c1.097,1.907,1.066,5.009-0.069,6.894l-11.292,18.742c-1.135,1.884-3.863,3.376-6.062,3.315L254.696,122.833z"/>
	</g>
	<rect x="239.478" y="92.709" fill="#FFFFFF" width="55.888" height="9.634"/>
	<path stroke="#000000" stroke-miterlimit="10" d="M296.709,93.248l-10.94-18.946c-1.386-2.399-4.64-4.278-7.409-4.278h-21.877
		c-2.769,0-6.023,1.879-7.41,4.278l-10.938,18.946c-1.385,2.4-1.385,6.159,0,8.557l10.938,18.947
		c1.387,2.398,4.641,4.277,7.41,4.277h21.877c2.77,0,6.023-1.878,7.41-4.278l10.938-18.946
		C298.094,99.406,298.094,95.647,296.709,93.248z M294.977,100.804l-10.939,18.946c-1.026,1.776-3.627,3.278-5.678,3.278h-21.877
		c-2.051,0-4.651-1.502-5.678-3.278l-10.938-18.946c-1.026-1.776-1.026-4.779,0-6.557l10.938-18.945
		c1.026-1.777,3.627-3.278,5.678-3.278h21.877c2.051,0,4.65,1.501,5.678,3.278l10.939,18.946
		C296.002,96.025,296.002,99.028,294.977,100.804z"/>
	<rect x="241.638" y="93.401" fill="none" width="51" height="8.25"/>
	<text transform="matrix(1 0 0 1 242.8872 99.8989)" font-family="'TradeGothicLTStd-Bd2'" font-size="9">visualization</text>
</g>
<circle opacity="0.5" fill="#2E3192" cx="391.522" cy="25.265" r="19.125"/>
<g opacity="0.5">
	<circle fill="#FBB040" cx="391.522" cy="174.265" r="18.999"/>
	<g>
		<path fill="#FFFFFF" d="M385.938,172.239c-0.269-0.817-0.846-1.396-1.758-1.396c-1.234,0-1.985,1.154-1.985,3.421
			c-0.026,2.268,0.645,3.422,2.039,3.422c0.832,0,1.342-0.296,1.892-1.437l1.717,0.457c-0.576,1.677-1.838,2.535-3.608,2.535
			c-2.469,0-3.89-1.811-3.89-4.978c0-3.166,1.421-4.977,3.89-4.977c1.851,0,2.925,0.833,3.38,2.55L385.938,172.239z"/>
		<path fill="#FFFFFF" d="M395.326,169.409v1.556h-2.536v8.144h-1.852v-8.144h-2.535v-1.556H395.326z"/>
		<path fill="#FFFFFF" d="M402.701,179.108h-6.895v-1.569l4.52-6.56h-4.211v-1.558h6.547v1.476l-4.683,6.653h4.722V179.108z"/>
	</g>
</g>
<g>
	<circle fill="#FBB040" cx="391.522" cy="174.265" r="12.75"/>
	<g>
		<path fill="#FFFFFF" d="M387.774,172.905c-0.18-0.549-0.567-0.937-1.18-0.937c-0.828,0-1.332,0.774-1.332,2.296
			c-0.018,1.521,0.433,2.296,1.368,2.296c0.559,0,0.9-0.198,1.27-0.964l1.152,0.307c-0.387,1.125-1.233,1.701-2.422,1.701
			c-1.656,0-2.61-1.215-2.61-3.34s0.954-3.34,2.61-3.34c1.242,0,1.963,0.559,2.269,1.711L387.774,172.905z"/>
		<path fill="#FFFFFF" d="M394.075,171.006v1.044h-1.702v5.465h-1.242v-5.465h-1.701v-1.044H394.075z"/>
		<path fill="#FFFFFF" d="M399.024,177.515h-4.627v-1.053l3.033-4.402h-2.826v-1.045h4.394v0.99l-3.143,4.465h3.169V177.515z"/>
	</g>
</g>
<g>
	<g>
		<line fill="none" stroke="#58595B" stroke-width="2" stroke-miterlimit="10" x1="295.055" y1="115.521" x2="368.5" y2="159.374"/>
		<g>
			<polygon fill="#58595B" points="365.453,162.201 373.43,162.317 369.543,155.351 			"/>
		</g>
	</g>
</g>
<g>
	<g>
		<line fill="none" stroke="#58595B" stroke-width="2" stroke-miterlimit="10" x1="295.055" y1="78.316" x2="369.382" y2="38.052"/>
		<g>
			<polygon fill="#58595B" points="370.256,42.115 374.43,35.317 366.455,35.101 			"/>
		</g>
	</g>
</g>
<circle fill="#2E3192" cx="391.522" cy="25.265" r="12.75"/>
<g>
	<path fill="#FFFFFF" d="M386.562,28.515v-6.5h2.377c1.404,0,2.295,0.586,2.295,1.936c0,1.351-0.891,1.936-2.295,1.936h-1.135v2.629
		H386.562z M387.805,24.878h0.99c0.937,0,1.197-0.352,1.197-0.928s-0.261-0.928-1.197-0.928h-0.99V24.878z"/>
	<path fill="#FFFFFF" d="M395.221,23.743c-0.188-0.504-0.576-0.846-1.16-0.846c-0.541,0-0.928,0.216-0.928,0.72
		c0,1.116,3.35,0.882,3.35,2.989c0,1.332-0.838,1.998-2.278,1.998c-1.062,0-2.062-0.594-2.431-1.539l1.026-0.45
		c0.297,0.612,0.685,1.017,1.413,1.017c0.621,0,1.099-0.233,1.099-0.863c0-1.279-3.349-1.027-3.349-3.025
		c0-1.161,0.972-1.818,2.098-1.818c1.044,0,1.908,0.521,2.295,1.467L395.221,23.743z"/>
</g>
<circle opacity="0.5" fill="#2E3192" cx="382.574" cy="97.95" r="19.125"/>
<circle fill="#2E3192" cx="382.574" cy="97.95" r="12.75"/>
<g>
	<path fill="#FFFFFF" d="M377.613,101.2v-6.5h2.377c1.404,0,2.295,0.586,2.295,1.936c0,1.351-0.891,1.936-2.295,1.936h-1.135v2.629
		H377.613z M378.855,97.563h0.99c0.938,0,1.197-0.352,1.197-0.928s-0.26-0.928-1.197-0.928h-0.99V97.563z"/>
	<path fill="#FFFFFF" d="M386.271,96.429c-0.188-0.504-0.576-0.846-1.16-0.846c-0.541,0-0.928,0.216-0.928,0.72
		c0,1.116,3.35,0.882,3.35,2.989c0,1.332-0.838,1.998-2.277,1.998c-1.062,0-2.062-0.594-2.432-1.539l1.027-0.45
		c0.297,0.612,0.684,1.017,1.412,1.017c0.621,0,1.1-0.233,1.1-0.863c0-1.279-3.35-1.027-3.35-3.025c0-1.161,0.973-1.818,2.098-1.818
		c1.045,0,1.908,0.521,2.295,1.467L386.271,96.429z"/>
</g>
<g>
	<g>
		<line fill="none" stroke="#58595B" stroke-width="2" stroke-miterlimit="10" x1="302.824" y1="98.243" x2="357.707" y2="98.243"/>
		<g>
			<polygon fill="#58595B" points="356.539,102.232 363.447,98.243 356.539,94.254 			"/>
		</g>
	</g>
</g>
</svg>
