<?xml version="1.0" encoding="utf-8"?>
<!-- Generator: Adobe Illustrator 16.0.0, SVG Export Plug-In . SVG Version: 6.00 Build 0)  -->
<!DOCTYPE svg PUBLIC "-//W3C//DTD SVG 1.1//EN" "http://www.w3.org/Graphics/SVG/1.1/DTD/svg11.dtd">
<svg version="1.1" id="Layer_1" xmlns="http://www.w3.org/2000/svg" xmlns:xlink="http://www.w3.org/1999/xlink" x="0px" y="0px"
	 width="483.133px" height="466.265px" viewBox="0 0 483.133 466.265" enable-background="new 0 0 483.133 466.265"
	 xml:space="preserve">
<g>
	<g>
		<g>
			<defs>
				<rect id="SVGID_1_" x="74.351" y="78.317" width="328.096" height="328.096"/>
			</defs>
			<clipPath id="SVGID_2_">
				<use xlink:href="#SVGID_1_"  overflow="visible"/>
			</clipPath>
			<polygon clip-path="url(#SVGID_2_)" fill="#FFFFFF" points="402.447,80.089 400.682,78.317 402.447,78.317 			"/>
			<polygon clip-path="url(#SVGID_2_)" fill="#FFFFFF" points="402.447,83.748 397.039,78.317 400.682,78.317 402.447,80.092 			"/>
			<polygon clip-path="url(#SVGID_2_)" fill="#FDFDFD" points="402.447,87.408 393.398,78.317 397.039,78.317 402.447,83.748 			"/>
			<polygon clip-path="url(#SVGID_2_)" fill="#FBFBFC" points="402.447,91.064 389.756,78.317 393.398,78.317 402.447,87.408 			"/>
			<polygon clip-path="url(#SVGID_2_)" fill="#FAFAFA" points="402.447,94.724 386.113,78.317 389.756,78.317 402.447,91.064 			"/>
			<polygon clip-path="url(#SVGID_2_)" fill="#F9F9F9" points="402.447,98.38 382.47,78.317 386.113,78.317 402.447,94.724 			"/>
			<polygon clip-path="url(#SVGID_2_)" fill="#F7F8F8" points="402.447,102.04 378.83,78.317 382.47,78.317 402.447,98.38 			"/>
			<polygon clip-path="url(#SVGID_2_)" fill="#F6F7F7" points="402.447,105.696 375.188,78.317 378.83,78.317 402.447,102.04 			"/>
			<polygon clip-path="url(#SVGID_2_)" fill="#F5F6F6" points="402.447,109.356 371.545,78.317 375.188,78.317 402.447,105.696 			
				"/>
			<polygon clip-path="url(#SVGID_2_)" fill="#F4F5F5" points="402.447,113.013 367.901,78.317 371.545,78.317 402.447,109.356 			
				"/>
			<polygon clip-path="url(#SVGID_2_)" fill="#F3F4F4" points="402.447,116.672 364.259,78.317 367.901,78.317 402.447,113.013 			
				"/>
			<polygon clip-path="url(#SVGID_2_)" fill="#F2F3F3" points="402.447,120.329 360.619,78.317 364.259,78.317 402.447,116.672 			
				"/>
			<polygon clip-path="url(#SVGID_2_)" fill="#F1F2F2" points="402.447,123.985 356.976,78.317 360.619,78.317 402.447,120.329 			
				"/>
			<polygon clip-path="url(#SVGID_2_)" fill="#F0F1F1" points="402.447,127.645 353.333,78.317 356.976,78.317 402.447,123.985 			
				"/>
			<polygon clip-path="url(#SVGID_2_)" fill="#EFF0F0" points="402.447,131.301 349.693,78.317 353.333,78.317 402.447,127.645 			
				"/>
			<polygon clip-path="url(#SVGID_2_)" fill="#EEEFF0" points="402.447,134.96 346.051,78.317 349.693,78.317 402.447,131.301 			
				"/>
			<polygon clip-path="url(#SVGID_2_)" fill="#EDEEEF" points="402.447,138.617 342.407,78.317 346.051,78.317 402.447,134.96 			
				"/>
			<polygon clip-path="url(#SVGID_2_)" fill="#EDEDEE" points="402.447,142.277 338.765,78.317 342.407,78.317 402.447,138.617 			
				"/>
			<polygon clip-path="url(#SVGID_2_)" fill="#ECECED" points="402.447,145.933 335.122,78.317 338.765,78.317 402.447,142.277 			
				"/>
			<polygon clip-path="url(#SVGID_2_)" fill="#EBEBEC" points="402.447,149.593 331.482,78.317 335.122,78.317 402.447,145.933 			
				"/>
			<polygon clip-path="url(#SVGID_2_)" fill="#EAEBEB" points="402.447,153.25 327.839,78.317 331.482,78.317 402.447,149.593 			
				"/>
			<polygon clip-path="url(#SVGID_2_)" fill="#E9EAEA" points="402.447,156.909 324.196,78.317 327.839,78.317 402.447,153.25 			
				"/>
			<polygon clip-path="url(#SVGID_2_)" fill="#E8E9E9" points="402.447,160.566 320.554,78.317 324.196,78.317 402.447,156.909 			
				"/>
			<polygon clip-path="url(#SVGID_2_)" fill="#E7E8E9" points="402.447,164.225 316.914,78.317 320.554,78.317 402.447,160.566 			
				"/>
			<polygon clip-path="url(#SVGID_2_)" fill="#E6E7E8" points="402.447,167.881 313.271,78.317 316.914,78.317 402.447,164.225 			
				"/>
			<polygon clip-path="url(#SVGID_2_)" fill="#E5E6E7" points="402.447,171.541 309.628,78.317 313.271,78.317 402.447,167.881 			
				"/>
			<polygon clip-path="url(#SVGID_2_)" fill="#E4E5E6" points="402.447,175.198 305.984,78.317 309.628,78.317 402.447,171.541 			
				"/>
			<polygon clip-path="url(#SVGID_2_)" fill="#E3E4E5" points="402.447,178.857 302.342,78.317 305.984,78.317 402.447,175.198 			
				"/>
			<polygon clip-path="url(#SVGID_2_)" fill="#E2E3E4" points="402.447,182.514 298.702,78.317 302.342,78.317 402.447,178.857 			
				"/>
			<polygon clip-path="url(#SVGID_2_)" fill="#E1E2E3" points="402.447,186.173 295.06,78.317 298.702,78.317 402.447,182.514 			
				"/>
			<polygon clip-path="url(#SVGID_2_)" fill="#E0E1E2" points="402.447,189.83 291.416,78.317 295.06,78.317 402.447,186.173 			"/>
			<polygon clip-path="url(#SVGID_2_)" fill="#DFE0E2" points="402.447,193.489 287.773,78.317 291.416,78.317 402.447,189.83 			
				"/>
			<polygon clip-path="url(#SVGID_2_)" fill="#DEE0E1" points="402.447,197.146 284.134,78.317 287.773,78.317 402.447,193.489 			
				"/>
			<polygon clip-path="url(#SVGID_2_)" fill="#DEDFE0" points="402.447,200.805 280.49,78.317 284.134,78.317 402.447,197.146 			
				"/>
			<polygon clip-path="url(#SVGID_2_)" fill="#DDDEDF" points="402.447,204.462 276.848,78.317 280.49,78.317 402.447,200.805 			
				"/>
			<polygon clip-path="url(#SVGID_2_)" fill="#DCDDDE" points="402.447,208.122 273.205,78.317 276.848,78.317 402.447,204.462 			
				"/>
			<polygon clip-path="url(#SVGID_2_)" fill="#DBDCDD" points="402.447,211.778 269.565,78.317 273.205,78.317 402.447,208.122 			
				"/>
			<polygon clip-path="url(#SVGID_2_)" fill="#DADBDC" points="402.447,215.437 265.922,78.317 269.565,78.317 402.447,211.778 			
				"/>
			<polygon clip-path="url(#SVGID_2_)" fill="#D9DADC" points="402.447,219.094 262.279,78.317 265.922,78.317 402.447,215.437 			
				"/>
			<polygon clip-path="url(#SVGID_2_)" fill="#D8D9DB" points="402.447,222.753 258.637,78.317 262.279,78.317 402.447,219.094 			
				"/>
			<polygon clip-path="url(#SVGID_2_)" fill="#D7D8DA" points="402.447,226.41 254.996,78.317 258.637,78.317 402.447,222.753 			
				"/>
			<polygon clip-path="url(#SVGID_2_)" fill="#D6D8D9" points="402.447,230.07 251.354,78.317 254.996,78.317 402.447,226.41 			"/>
			<polygon clip-path="url(#SVGID_2_)" fill="#D5D7D8" points="402.447,233.726 247.711,78.317 251.354,78.317 402.447,230.07 			
				"/>
			<polygon clip-path="url(#SVGID_2_)" fill="#D4D6D7" points="402.447,237.385 244.068,78.317 247.711,78.317 402.447,233.726 			
				"/>
			<polygon clip-path="url(#SVGID_2_)" fill="#D3D5D6" points="402.447,241.042 240.426,78.317 244.068,78.317 402.447,237.385 			
				"/>
			<polygon clip-path="url(#SVGID_2_)" fill="#D3D4D6" points="402.447,244.702 236.783,78.317 240.426,78.317 402.447,241.042 			
				"/>
			<polygon clip-path="url(#SVGID_2_)" fill="#D2D3D5" points="402.447,248.358 233.143,78.317 236.785,78.317 402.447,244.702 			
				"/>
			<polygon clip-path="url(#SVGID_2_)" fill="#D1D2D4" points="402.447,252.018 229.5,78.317 233.143,78.317 402.447,248.358 			"/>
			<polygon clip-path="url(#SVGID_2_)" fill="#D0D1D3" points="402.447,255.674 225.857,78.317 229.5,78.317 402.447,252.018 			"/>
			<polygon clip-path="url(#SVGID_2_)" fill="#CFD0D2" points="402.447,259.333 222.217,78.317 225.857,78.317 402.447,255.674 			
				"/>
			<polygon clip-path="url(#SVGID_2_)" fill="#CED0D1" points="402.447,262.991 218.574,78.317 222.217,78.317 402.447,259.333 			
				"/>
			<polygon clip-path="url(#SVGID_2_)" fill="#CDCFD0" points="402.447,266.647 214.932,78.317 218.574,78.317 402.447,262.991 			
				"/>
			<polygon clip-path="url(#SVGID_2_)" fill="#CCCED0" points="402.447,270.306 211.289,78.317 214.932,78.317 402.447,266.647 			
				"/>
			<polygon clip-path="url(#SVGID_2_)" fill="#CBCDCF" points="402.447,273.966 207.648,78.317 211.289,78.317 402.447,270.306 			
				"/>
			<polygon clip-path="url(#SVGID_2_)" fill="#CACCCE" points="402.447,277.623 204.006,78.317 207.648,78.317 402.447,273.966 			
				"/>
			<polygon clip-path="url(#SVGID_2_)" fill="#C9CBCD" points="402.447,281.279 200.363,78.317 204.006,78.317 402.447,277.623 			
				"/>
			<polygon clip-path="url(#SVGID_2_)" fill="#C9CACC" points="402.447,284.939 196.72,78.317 200.363,78.317 402.447,281.279 			
				"/>
			<polygon clip-path="url(#SVGID_2_)" fill="#C8C9CB" points="402.447,288.598 193.08,78.317 196.72,78.317 402.447,284.939 			"/>
			<polygon clip-path="url(#SVGID_2_)" fill="#C7C8CA" points="402.447,292.254 189.438,78.317 193.08,78.317 402.447,288.598 			
				"/>
			<polygon clip-path="url(#SVGID_2_)" fill="#C6C8CA" points="402.447,295.912 185.794,78.317 189.438,78.317 402.447,292.254 			
				"/>
			<polygon clip-path="url(#SVGID_2_)" fill="#C5C7C9" points="402.447,299.571 182.152,78.317 185.794,78.317 402.447,295.912 			
				"/>
			<polygon clip-path="url(#SVGID_2_)" fill="#C4C6C8" points="402.447,303.227 178.509,78.317 182.152,78.317 402.447,299.571 			
				"/>
			<polygon clip-path="url(#SVGID_2_)" fill="#C3C5C7" points="402.447,306.887 174.869,78.317 178.509,78.317 402.447,303.227 			
				"/>
			<polygon clip-path="url(#SVGID_2_)" fill="#C2C4C6" points="402.447,310.543 171.226,78.317 174.869,78.317 402.447,306.887 			
				"/>
			<polygon clip-path="url(#SVGID_2_)" fill="#C1C3C5" points="402.447,314.203 167.583,78.317 171.226,78.317 402.447,310.543 			
				"/>
			<polygon clip-path="url(#SVGID_2_)" fill="#C0C2C4" points="402.447,317.86 163.94,78.317 167.583,78.317 402.447,314.203 			"/>
			<polygon clip-path="url(#SVGID_2_)" fill="#C0C1C4" points="402.447,321.519 160.3,78.317 163.94,78.317 402.447,317.86 			"/>
			<polygon clip-path="url(#SVGID_2_)" fill="#BFC0C3" points="402.447,325.175 156.658,78.317 160.3,78.317 402.447,321.519 			"/>
			<polygon clip-path="url(#SVGID_2_)" fill="#BEC0C2" points="402.447,328.835 153.015,78.317 156.658,78.317 402.447,325.175 			
				"/>
			<polygon clip-path="url(#SVGID_2_)" fill="#BDBFC1" points="402.447,332.492 149.372,78.317 153.015,78.317 402.447,328.835 			
				"/>
			<polygon clip-path="url(#SVGID_2_)" fill="#BCBEC0" points="402.447,336.151 145.729,78.317 149.372,78.317 402.447,332.492 			
				"/>
			<polygon clip-path="url(#SVGID_2_)" fill="#BBBDBF" points="402.447,339.808 142.089,78.317 145.729,78.317 402.447,336.151 			
				"/>
			<polygon clip-path="url(#SVGID_2_)" fill="#BABCBE" points="402.447,343.467 138.446,78.317 142.089,78.317 402.447,339.808 			
				"/>
			<polygon clip-path="url(#SVGID_2_)" fill="#B9BBBD" points="402.447,347.124 134.804,78.317 138.446,78.317 402.447,343.467 			
				"/>
			<polygon clip-path="url(#SVGID_2_)" fill="#B8BABD" points="402.447,350.784 131.164,78.317 134.804,78.317 402.447,347.124 			
				"/>
			<polygon clip-path="url(#SVGID_2_)" fill="#B8B9BC" points="402.447,354.44 127.521,78.317 131.164,78.317 402.447,350.784 			
				"/>
			<polygon clip-path="url(#SVGID_2_)" fill="#B7B9BB" points="402.447,358.099 123.878,78.317 127.521,78.317 402.447,354.44 			
				"/>
			<polygon clip-path="url(#SVGID_2_)" fill="#B6B8BA" points="402.447,361.756 120.235,78.317 123.878,78.317 402.447,358.099 			
				"/>
			<polygon clip-path="url(#SVGID_2_)" fill="#B5B7B9" points="402.447,365.416 116.592,78.317 120.235,78.317 402.447,361.756 			
				"/>
			<polygon clip-path="url(#SVGID_2_)" fill="#B4B6B8" points="402.447,369.072 112.952,78.317 116.592,78.317 402.447,365.416 			
				"/>
			<polygon clip-path="url(#SVGID_2_)" fill="#B3B5B8" points="402.447,372.732 109.31,78.317 112.952,78.317 402.447,369.072 			
				"/>
			<polygon clip-path="url(#SVGID_2_)" fill="#B2B4B7" points="402.447,376.388 105.667,78.317 109.31,78.317 402.447,372.732 			
				"/>
			<polygon clip-path="url(#SVGID_2_)" fill="#B1B3B6" points="402.447,380.047 102.026,78.317 105.667,78.317 402.447,376.388 			
				"/>
			<polygon clip-path="url(#SVGID_2_)" fill="#B1B3B5" points="402.447,383.705 98.384,78.317 102.026,78.317 402.447,380.047 			
				"/>
			<polygon clip-path="url(#SVGID_2_)" fill="#B0B2B4" points="402.447,387.364 94.741,78.317 98.384,78.317 402.447,383.705 			"/>
			<polygon clip-path="url(#SVGID_2_)" fill="#AFB1B3" points="402.447,391.02 91.098,78.317 94.741,78.317 402.447,387.364 			"/>
			<polygon clip-path="url(#SVGID_2_)" fill="#AEB0B3" points="402.447,394.679 87.455,78.317 91.098,78.317 402.447,391.02 			"/>
			<polygon clip-path="url(#SVGID_2_)" fill="#ADAFB2" points="402.447,398.336 83.812,78.317 87.455,78.317 402.447,394.679 			"/>
			<polygon clip-path="url(#SVGID_2_)" fill="#ACAEB1" points="402.447,401.996 80.172,78.317 83.812,78.317 402.447,398.336 			"/>
			<polygon clip-path="url(#SVGID_2_)" fill="#ABAEB0" points="402.447,405.652 76.53,78.317 80.172,78.317 402.447,401.996 			"/>
			<polygon clip-path="url(#SVGID_2_)" fill="#ABADAF" points="399.563,406.414 74.351,79.787 74.351,78.317 76.53,78.317 
				402.447,405.652 402.447,406.414 			"/>
			<polygon clip-path="url(#SVGID_2_)" fill="#AAACAE" points="395.92,406.414 74.351,83.447 74.351,79.787 399.563,406.414 			"/>
			<polygon clip-path="url(#SVGID_2_)" fill="#A9ABAE" points="392.277,406.414 74.351,87.103 74.351,83.447 395.92,406.414 			"/>
			<polygon clip-path="url(#SVGID_2_)" fill="#A8AAAD" points="388.638,406.414 74.351,90.76 74.351,87.103 392.277,406.414 			"/>
			<polygon clip-path="url(#SVGID_2_)" fill="#A7A9AC" points="384.995,406.414 74.351,94.419 74.351,90.76 388.638,406.414 			"/>
			<polygon clip-path="url(#SVGID_2_)" fill="#A7A9AB" points="381.352,406.414 74.351,98.076 74.351,94.419 384.995,406.414 			"/>
			<polygon clip-path="url(#SVGID_2_)" fill="#A6A8AA" points="377.712,406.414 74.351,101.735 74.351,98.076 381.352,406.414 			
				"/>
			<polygon clip-path="url(#SVGID_2_)" fill="#A5A7AA" points="374.069,406.414 74.351,105.392 74.351,101.735 377.712,406.414 			
				"/>
			<polygon clip-path="url(#SVGID_2_)" fill="#A4A6A9" points="370.426,406.414 74.351,109.051 74.351,105.392 374.069,406.414 			
				"/>
			<polygon clip-path="url(#SVGID_2_)" fill="#A3A5A8" points="366.783,406.414 74.351,112.708 74.351,109.051 370.426,406.414 			
				"/>
			<polygon clip-path="url(#SVGID_2_)" fill="#A2A5A7" points="363.141,406.414 74.351,116.368 74.351,112.708 366.783,406.414 			
				"/>
			<polygon clip-path="url(#SVGID_2_)" fill="#A2A4A6" points="359.501,406.414 74.351,120.024 74.351,116.368 363.141,406.414 			
				"/>
			<polygon clip-path="url(#SVGID_2_)" fill="#A1A3A6" points="355.857,406.414 74.351,123.684 74.351,120.024 359.501,406.414 			
				"/>
			<polygon clip-path="url(#SVGID_2_)" fill="#A0A2A5" points="352.215,406.414 74.351,127.34 74.351,123.684 355.857,406.414 			
				"/>
			<polygon clip-path="url(#SVGID_2_)" fill="#9FA1A4" points="348.572,406.414 74.351,131 74.351,127.34 352.215,406.414 			"/>
			<polygon clip-path="url(#SVGID_2_)" fill="#9EA1A3" points="344.932,406.414 74.351,134.656 74.351,131 348.572,406.414 			"/>
			<polygon clip-path="url(#SVGID_2_)" fill="#9EA0A2" points="341.289,406.414 74.351,138.315 74.351,134.656 344.932,406.414 			
				"/>
			<polygon clip-path="url(#SVGID_2_)" fill="#9D9FA2" points="337.646,406.414 74.351,141.972 74.351,138.315 341.289,406.414 			
				"/>
			<polygon clip-path="url(#SVGID_2_)" fill="#9C9EA1" points="334.004,406.414 74.351,145.631 74.351,141.972 337.646,406.414 			
				"/>
			<polygon clip-path="url(#SVGID_2_)" fill="#9B9DA0" points="330.361,406.414 74.351,149.292 74.351,145.631 334.004,406.414 			
				"/>
			<polygon clip-path="url(#SVGID_2_)" fill="#9B9D9F" points="326.719,406.414 74.351,152.948 74.351,149.289 330.361,406.414 			
				"/>
			<polygon clip-path="url(#SVGID_2_)" fill="#9A9C9F" points="323.078,406.414 74.351,156.604 74.351,152.948 326.719,406.414 			
				"/>
			<polygon clip-path="url(#SVGID_2_)" fill="#999B9E" points="319.436,406.414 74.351,160.264 74.351,156.604 323.078,406.414 			
				"/>
			<polygon clip-path="url(#SVGID_2_)" fill="#989A9D" points="315.795,406.414 74.351,163.92 74.351,160.264 319.436,406.414 			
				"/>
			<polygon clip-path="url(#SVGID_2_)" fill="#989A9C" points="312.152,406.414 74.351,167.58 74.351,163.92 315.795,406.414 			"/>
			<polygon clip-path="url(#SVGID_2_)" fill="#97999B" points="308.51,406.414 74.351,171.237 74.351,167.58 312.152,406.414 			"/>
			<polygon clip-path="url(#SVGID_2_)" fill="#96989B" points="304.867,406.414 74.351,174.896 74.351,171.237 308.51,406.414 			
				"/>
			<polygon clip-path="url(#SVGID_2_)" fill="#95979A" points="301.225,406.414 74.351,178.552 74.351,174.896 304.867,406.414 			
				"/>
			<polygon clip-path="url(#SVGID_2_)" fill="#949799" points="297.581,406.414 74.351,182.212 74.351,178.552 301.225,406.414 			
				"/>
			<polygon clip-path="url(#SVGID_2_)" fill="#949698" points="293.941,406.414 74.351,185.869 74.351,182.212 297.581,406.414 			
				"/>
			<polygon clip-path="url(#SVGID_2_)" fill="#939598" points="290.299,406.414 74.351,189.528 74.351,185.869 293.941,406.414 			
				"/>
			<polygon clip-path="url(#SVGID_2_)" fill="#929497" points="286.655,406.414 74.351,193.185 74.351,189.528 290.299,406.414 			
				"/>
			<polygon clip-path="url(#SVGID_2_)" fill="#929496" points="283.016,406.414 74.351,196.844 74.351,193.185 286.655,406.414 			
				"/>
			<polygon clip-path="url(#SVGID_2_)" fill="#919396" points="279.373,406.414 74.351,200.5 74.351,196.844 283.016,406.414 			"/>
			<polygon clip-path="url(#SVGID_2_)" fill="#909295" points="275.73,406.414 74.351,204.161 74.351,200.5 279.373,406.414 			"/>
			<polygon clip-path="url(#SVGID_2_)" fill="#8F9194" points="272.087,406.414 74.351,207.817 74.351,204.161 275.73,406.414 			
				"/>
			<polygon clip-path="url(#SVGID_2_)" fill="#8F9193" points="268.444,406.414 74.351,211.476 74.351,207.817 272.087,406.414 			
				"/>
			<polygon clip-path="url(#SVGID_2_)" fill="#8E9093" points="264.805,406.414 74.351,215.133 74.351,211.476 268.444,406.414 			
				"/>
			<polygon clip-path="url(#SVGID_2_)" fill="#8D8F92" points="261.161,406.414 74.351,218.792 74.351,215.133 264.805,406.414 			
				"/>
			<polygon clip-path="url(#SVGID_2_)" fill="#8C8E91" points="257.519,406.414 74.351,222.449 74.351,218.792 261.161,406.414 			
				"/>
			<polygon clip-path="url(#SVGID_2_)" fill="#8C8E90" points="253.875,406.414 74.351,226.109 74.351,222.449 257.519,406.414 			
				"/>
			<polygon clip-path="url(#SVGID_2_)" fill="#8B8D90" points="250.236,406.414 74.351,229.765 74.351,226.109 253.875,406.414 			
				"/>
			<polygon clip-path="url(#SVGID_2_)" fill="#8A8C8F" points="246.593,406.414 74.351,233.424 74.351,229.765 250.236,406.414 			
				"/>
			<polygon clip-path="url(#SVGID_2_)" fill="#8A8C8E" points="242.95,406.414 74.351,237.082 74.351,233.424 246.593,406.414 			
				"/>
			<polygon clip-path="url(#SVGID_2_)" fill="#898B8E" points="239.307,406.414 74.351,240.738 74.351,237.082 242.95,406.414 			
				"/>
			<polygon clip-path="url(#SVGID_2_)" fill="#888A8D" points="235.667,406.414 74.351,244.397 74.351,240.738 239.307,406.414 			
				"/>
			<polygon clip-path="url(#SVGID_2_)" fill="#88898C" points="232.024,406.414 74.351,248.056 74.351,244.397 235.667,406.414 			
				"/>
			<polygon clip-path="url(#SVGID_2_)" fill="#87898B" points="228.382,406.414 74.351,251.713 74.351,248.056 232.024,406.414 			
				"/>
			<polygon clip-path="url(#SVGID_2_)" fill="#86888B" points="224.739,406.414 74.351,255.37 74.351,251.713 228.382,406.414 			
				"/>
			<polygon clip-path="url(#SVGID_2_)" fill="#85878A" points="221.099,406.414 74.351,259.029 74.351,255.37 224.739,406.414 			
				"/>
			<polygon clip-path="url(#SVGID_2_)" fill="#858789" points="217.456,406.414 74.351,262.689 74.351,259.029 221.099,406.414 			
				"/>
			<polygon clip-path="url(#SVGID_2_)" fill="#848689" points="213.813,406.414 74.351,266.345 74.351,262.689 217.456,406.414 			
				"/>
			<polygon clip-path="url(#SVGID_2_)" fill="#838588" points="210.17,406.414 74.351,270.002 74.351,266.345 213.813,406.414 			
				"/>
			<polygon clip-path="url(#SVGID_2_)" fill="#838587" points="206.527,406.414 74.351,273.662 74.351,270.002 210.17,406.414 			
				"/>
			<polygon clip-path="url(#SVGID_2_)" fill="#828487" points="202.888,406.414 74.351,277.321 74.351,273.662 206.527,406.414 			
				"/>
			<polygon clip-path="url(#SVGID_2_)" fill="#818386" points="199.245,406.414 74.351,280.978 74.351,277.321 202.888,406.414 			
				"/>
			<polygon clip-path="url(#SVGID_2_)" fill="#818385" points="195.602,406.414 74.351,284.634 74.351,280.978 199.245,406.414 			
				"/>
			<polygon clip-path="url(#SVGID_2_)" fill="#808284" points="191.959,406.414 74.351,288.293 74.351,284.634 195.602,406.414 			
				"/>
			<polygon clip-path="url(#SVGID_2_)" fill="#7F8184" points="188.319,406.414 74.351,291.953 74.351,288.293 191.959,406.414 			
				"/>
			<polygon clip-path="url(#SVGID_2_)" fill="#7F8183" points="184.676,406.414 74.351,295.61 74.351,291.953 188.319,406.414 			
				"/>
			<polygon clip-path="url(#SVGID_2_)" fill="#7E8082" points="181.033,406.414 74.351,299.266 74.351,295.61 184.676,406.414 			
				"/>
			<polygon clip-path="url(#SVGID_2_)" fill="#7D7F82" points="177.391,406.414 74.351,302.925 74.351,299.266 181.033,406.414 			
				"/>
			<polygon clip-path="url(#SVGID_2_)" fill="#7D7F81" points="173.748,406.414 74.351,306.583 74.351,302.925 177.391,406.414 			
				"/>
			<polygon clip-path="url(#SVGID_2_)" fill="#7C7E80" points="170.108,406.414 74.351,310.242 74.351,306.583 173.748,406.414 			
				"/>
			<polygon clip-path="url(#SVGID_2_)" fill="#7B7D80" points="166.465,406.414 74.351,313.898 74.351,310.242 170.108,406.414 			
				"/>
			<polygon clip-path="url(#SVGID_2_)" fill="#7B7D7F" points="162.822,406.414 74.351,317.558 74.351,313.898 166.465,406.414 			
				"/>
			<polygon clip-path="url(#SVGID_2_)" fill="#7A7C7E" points="159.182,406.414 74.351,321.214 74.351,317.558 162.822,406.414 			
				"/>
			<polygon clip-path="url(#SVGID_2_)" fill="#7A7B7E" points="155.539,406.414 74.351,324.874 74.351,321.214 159.182,406.414 			
				"/>
			<polygon clip-path="url(#SVGID_2_)" fill="#797B7D" points="151.896,406.414 74.351,328.531 74.351,324.874 155.539,406.414 			
				"/>
			<polygon clip-path="url(#SVGID_2_)" fill="#787A7D" points="148.254,406.414 74.351,332.19 74.351,328.531 151.896,406.414 			
				"/>
			<polygon clip-path="url(#SVGID_2_)" fill="#78797C" points="144.611,406.414 74.351,335.846 74.351,332.19 148.254,406.414 			
				"/>
			<polygon clip-path="url(#SVGID_2_)" fill="#77797B" points="140.971,406.414 74.351,339.506 74.351,335.846 144.611,406.414 			
				"/>
			<polygon clip-path="url(#SVGID_2_)" fill="#76787B" points="137.328,406.414 74.351,343.163 74.351,339.506 140.971,406.414 			
				"/>
			<polygon clip-path="url(#SVGID_2_)" fill="#76777A" points="133.685,406.414 74.351,346.822 74.351,343.163 137.328,406.414 			
				"/>
			<polygon clip-path="url(#SVGID_2_)" fill="#757779" points="130.045,406.414 74.351,350.479 74.351,346.822 133.685,406.414 			
				"/>
			<polygon clip-path="url(#SVGID_2_)" fill="#757679" points="126.402,406.414 74.351,354.138 74.351,350.479 130.045,406.414 			
				"/>
			<polygon clip-path="url(#SVGID_2_)" fill="#747678" points="122.76,406.414 74.351,357.794 74.351,354.138 126.402,406.414 			
				"/>
			<polygon clip-path="url(#SVGID_2_)" fill="#737577" points="119.117,406.414 74.351,361.455 74.351,357.794 122.76,406.414 			
				"/>
			<polygon clip-path="url(#SVGID_2_)" fill="#737477" points="115.474,406.414 74.351,365.111 74.351,361.455 119.117,406.414 			
				"/>
			<polygon clip-path="url(#SVGID_2_)" fill="#727476" points="111.831,406.414 74.351,368.77 74.351,365.111 115.474,406.414 			
				"/>
			<polygon clip-path="url(#SVGID_2_)" fill="#727376" points="108.191,406.414 74.351,372.427 74.351,368.77 111.831,406.414 			
				"/>
			<polygon clip-path="url(#SVGID_2_)" fill="#717375" points="104.548,406.414 74.351,376.086 74.351,372.427 108.191,406.414 			
				"/>
			<polygon clip-path="url(#SVGID_2_)" fill="#717274" points="100.905,406.414 74.351,379.743 74.351,376.086 104.548,406.414 			
				"/>
			<polygon clip-path="url(#SVGID_2_)" fill="#707174" points="97.266,406.414 74.351,383.4 74.351,379.743 100.905,406.414 			"/>
			<polygon clip-path="url(#SVGID_2_)" fill="#6F7173" points="93.623,406.414 74.351,387.059 74.351,383.4 97.266,406.414 			"/>
			<polygon clip-path="url(#SVGID_2_)" fill="#6F7073" points="89.98,406.414 74.351,390.718 74.351,387.059 93.623,406.414 			"/>
			<polygon clip-path="url(#SVGID_2_)" fill="#6E7072" points="86.337,406.414 74.351,394.375 74.351,390.718 89.98,406.414 			"/>
			<polygon clip-path="url(#SVGID_2_)" fill="#6E6F72" points="82.694,406.414 74.351,398.032 74.351,394.375 86.337,406.414 			"/>
			<polygon clip-path="url(#SVGID_2_)" fill="#6D6F71" points="79.054,406.414 74.351,401.691 74.351,398.032 82.694,406.414 			"/>
			<polygon clip-path="url(#SVGID_2_)" fill="#6D6E71" points="75.411,406.414 74.351,405.351 74.351,401.691 79.054,406.414 			"/>
			<polygon clip-path="url(#SVGID_2_)" fill="#6D6E71" points="74.351,405.351 75.411,406.414 74.351,406.414 			"/>
		</g>
	</g>
	<g>
		<rect x="238.045" y="73.357" width="0.709" height="338.726"/>
	</g>
	<g>
		<g>
			<path d="M58.432,258.466c-0.595,0.153-1.071,0.638-1.071,1.428c0,0.715,0.339,1.14,0.952,1.147
				c1.342,0.018,1.002-3.45,2.974-3.45c0.893,0,1.802,0.501,1.802,2.065c0,1.343-0.867,1.869-1.598,2.192l-0.221-0.62
				c0.646-0.247,1.241-0.706,1.241-1.606c0-0.901-0.476-1.352-1.105-1.352c-1.564,0-1.104,3.45-3.043,3.45
				c-0.884,0-1.581-0.739-1.581-1.844c0-0.952,0.502-1.7,1.513-2.023L58.432,258.466z"/>
		</g>
		<g>
			<path d="M63.004,253.721h-0.595v0.017c0.391,0.35,0.681,0.808,0.681,1.31c0,0.654-0.34,1.274-1.292,1.274h-3.212v-0.612h3.196
				c0.586,0,0.781-0.28,0.781-0.722c0-0.459-0.374-0.986-0.671-1.267h-3.306v-0.612h4.419V253.721z"/>
		</g>
		<g>
			<path d="M64.636,251.603h-6.051v-0.612h0.518v-0.018c-0.332-0.229-0.604-0.722-0.604-1.147c0-0.781,0.527-1.81,2.295-1.81
				c1.717,0,2.295,1.028,2.295,1.776c0,0.416-0.212,0.824-0.494,1.164l-0.017,0.034h2.057V251.603z M61.95,250.991
				c0.365-0.331,0.612-0.748,0.612-1.113c0-0.714-0.467-1.249-1.801-1.249c-1.122,0-1.734,0.484-1.734,1.249
				c0,0.391,0.17,0.68,0.595,1.113H61.95z"/>
		</g>
		<g>
			<path d="M64.636,246.875h-6.051v-0.611h0.518v-0.018c-0.332-0.229-0.604-0.723-0.604-1.147c0-0.782,0.527-1.811,2.295-1.811
				c1.717,0,2.295,1.028,2.295,1.776c0,0.417-0.212,0.824-0.494,1.165l-0.017,0.034h2.057V246.875z M61.95,246.263
				c0.365-0.332,0.612-0.748,0.612-1.113c0-0.715-0.467-1.25-1.801-1.25c-1.122,0-1.734,0.484-1.734,1.25
				c0,0.391,0.17,0.679,0.595,1.113H61.95z"/>
		</g>
		<g>
			<path d="M63.089,240.77c0,1.206-1.02,1.81-2.295,1.81s-2.295-0.604-2.295-1.81c0-1.207,1.02-1.81,2.295-1.81
				S63.089,239.563,63.089,240.77z M59.026,240.77c0,0.731,0.629,1.198,1.768,1.198s1.768-0.467,1.768-1.198
				s-0.628-1.198-1.768-1.198S59.026,240.039,59.026,240.77z"/>
		</g>
		<g>
			<path d="M58.585,238.048v-0.612h0.875v-0.018c-0.604-0.34-0.943-0.705-0.943-1.436h0.612c0.017,0.765,0.518,1.164,1.427,1.453
				h2.448v0.612H58.585z"/>
		</g>
		<g>
			<path d="M58.585,234.936h-1.454v-0.612h1.454v-1.02h0.526v1.02h3.145c0.204,0,0.306-0.145,0.306-0.501
				c0-0.204-0.017-0.383-0.042-0.545h0.502c0.034,0.111,0.068,0.357,0.068,0.715c0,0.662-0.17,0.943-0.731,0.943h-3.247v0.723
				h-0.526V234.936z"/>
		</g>
		<g>
			<path d="M56.783,231.493h0.731v0.611h-0.731V231.493z M58.585,232.104v-0.611h4.419v0.611H58.585z"/>
		</g>
		<g>
			<path d="M63.004,228.303v0.816l-4.419,1.359v-0.62l3.654-1.122v-0.017l-3.654-1.122v-0.62L63.004,228.303z"/>
		</g>
		<g>
			<path d="M63.089,224.714c0,1.207-1.02,1.811-2.295,1.811s-2.295-0.603-2.295-1.81s1.02-1.811,2.295-1.811
				S63.089,223.508,63.089,224.714z M59.026,224.715c0,0.73,0.629,1.198,1.768,1.198s1.768-0.468,1.768-1.199
				c0-0.73-0.628-1.197-1.768-1.197S59.026,223.985,59.026,224.715z"/>
		</g>
	</g>
	<g>
		<path d="M228.617,420.349v-6.137h2.143c1.309,0,1.878,0.748,1.878,1.717c0,1.021-0.705,1.683-2.252,1.683h-1.088v2.737H228.617z
			 M229.298,417.034h1.155c1.131,0,1.505-0.391,1.505-1.121c0-0.731-0.433-1.122-1.352-1.122h-1.309V417.034z"/>
		<path d="M235.089,420.434c-1.207,0-1.811-1.021-1.811-2.295s0.604-2.295,1.811-2.295c1.206,0,1.81,1.021,1.81,2.295
			S236.295,420.434,235.089,420.434z M235.089,416.371c-0.731,0-1.198,0.63-1.198,1.769c0,1.14,0.467,1.768,1.198,1.768
			c0.73,0,1.198-0.628,1.198-1.768C236.287,417,235.819,416.371,235.089,416.371z"/>
		<path d="M240.411,417.247c-0.171-0.535-0.519-0.876-1.046-0.876c-0.756,0-1.198,0.646-1.198,1.769s0.442,1.768,1.198,1.768
			c0.561,0,0.875-0.187,1.215-0.816l0.493,0.222c-0.441,0.748-0.833,1.122-1.708,1.122c-1.104,0-1.811-0.867-1.811-2.295
			s0.706-2.295,1.811-2.295c0.91,0,1.334,0.511,1.615,1.199L240.411,417.247z"/>
		<path d="M242.835,414.212v2.312h0.018c0.349-0.391,0.808-0.68,1.309-0.68c0.655,0,1.274,0.34,1.274,1.292v3.213h-0.611v-3.196
			c0-0.586-0.28-0.782-0.723-0.782c-0.459,0-0.985,0.375-1.267,0.673v3.306h-0.611v-6.137H242.835z"/>
		<path d="M247.682,414.127v0.73h-0.611v-0.73H247.682z M247.07,415.929h0.611v4.42h-0.611V415.929z"/>
		<path d="M147.145,424.332c-0.807,1.088-1.215,2.124-1.215,3.493c0,1.291,0.468,2.396,1.207,3.442h-0.629
			c-0.773-1.021-1.19-2.201-1.19-3.485c0-1.249,0.408-2.447,1.164-3.45H147.145z"/>
		<path d="M148.438,430.552v-6.136h2.142c1.31,0,1.878,0.748,1.878,1.717c0,1.02-0.705,1.683-2.252,1.683h-1.088v2.736H148.438z
			 M149.119,427.238h1.156c1.131,0,1.504-0.391,1.504-1.121c0-0.731-0.433-1.122-1.352-1.122h-1.309V427.238z"/>
		<path d="M156.141,430.552v-0.595h-0.017c-0.349,0.391-0.807,0.681-1.309,0.681c-0.655,0-1.275-0.34-1.275-1.292v-3.213h0.612
			v3.195c0,0.587,0.281,0.782,0.723,0.782c0.459,0,0.986-0.374,1.266-0.672v-3.306h0.612v4.419H156.141z"/>
		<path d="M158.872,424.417v2.142l0.034-0.017c0.34-0.28,0.748-0.493,1.165-0.493c0.747,0,1.775,0.578,1.775,2.295
			c0,1.768-1.028,2.295-1.81,2.295c-0.527,0-0.917-0.222-1.275-0.553l-0.111,0.467h-0.425c0.051-0.322,0.035-0.646,0.035-0.969
			v-5.167H158.872z M158.872,429.516c0.433,0.425,0.723,0.595,1.113,0.595c0.765,0,1.249-0.612,1.249-1.733
			c0-1.335-0.535-1.803-1.249-1.803c-0.365,0-0.782,0.247-1.113,0.612V429.516z"/>
		<path d="M163.728,424.417v6.136h-0.612v-6.136H163.728z"/>
		<path d="M166.091,424.332v0.73h-0.612v-0.73H166.091z M165.479,426.133h0.612v4.419h-0.612V426.133z"/>
		<path d="M170.164,427.451c-0.17-0.535-0.518-0.876-1.045-0.876c-0.756,0-1.199,0.646-1.199,1.769c0,1.121,0.442,1.768,1.199,1.768
			c0.561,0,0.875-0.188,1.215-0.816l0.493,0.222c-0.441,0.747-0.833,1.122-1.708,1.122c-1.104,0-1.811-0.867-1.811-2.295
			s0.706-2.295,1.811-2.295c0.909,0,1.334,0.51,1.615,1.198L170.164,427.451z"/>
		<path d="M177.621,425.981c-0.153-0.596-0.637-1.071-1.428-1.071c-0.714,0-1.139,0.34-1.147,0.952
			c-0.017,1.342,3.451,1.003,3.451,2.974c0,0.893-0.501,1.803-2.065,1.803c-1.343,0-1.87-0.867-2.193-1.599l0.621-0.221
			c0.246,0.646,0.705,1.241,1.606,1.241c0.9,0,1.352-0.477,1.352-1.105c0-1.563-3.451-1.104-3.451-3.043
			c0-0.883,0.739-1.58,1.844-1.58c0.952,0,1.7,0.502,2.023,1.513L177.621,425.981z"/>
		<path d="M182.97,429.61c-0.29,0.501-0.697,1.028-1.7,1.028c-0.986,0-1.921-0.681-1.921-2.295c0-1.428,0.714-2.295,1.802-2.295
			c0.918,0,1.683,0.595,1.683,2.006v0.408h-2.873c0,0.969,0.578,1.648,1.309,1.648c0.544,0,0.969-0.289,1.224-0.748L182.97,429.61z
			 M182.222,427.935c0-0.816-0.392-1.36-1.055-1.36c-0.739,0-1.138,0.544-1.189,1.36H182.222z"/>
		<path d="M183.855,426.133h0.612v0.876h0.018c0.34-0.604,0.705-0.944,1.436-0.944v0.612c-0.765,0.017-1.165,0.519-1.454,1.428
			v2.447h-0.612V426.133z"/>
		<path d="M188.405,430.552h-0.816l-1.359-4.419h0.62l1.122,3.655h0.018l1.122-3.655h0.621L188.405,430.552z"/>
		<path d="M190.352,426.983c0.281-0.51,0.825-0.935,1.658-0.935c0.748,0,1.529,0.357,1.529,1.326v2.227
			c0,0.484,0.043,0.722,0.103,0.951h-0.63l-0.068-0.611c-0.306,0.34-0.798,0.697-1.461,0.697c-0.68,0-1.258-0.408-1.258-1.216
			c0-0.969,0.74-1.453,2.703-1.802v-0.238c0-0.586-0.382-0.808-0.909-0.808c-0.68,0-1.012,0.392-1.131,0.688L190.352,426.983z
			 M192.928,428.165c-1.402,0.246-2.091,0.654-2.091,1.267c0,0.407,0.392,0.68,0.731,0.68c0.442,0,1.003-0.322,1.36-0.731V428.165z"
			/>
		<path d="M195.488,426.133v0.595h0.017c0.349-0.391,0.808-0.68,1.31-0.68c0.654,0,1.274,0.34,1.274,1.292v3.212h-0.612v-3.195
			c0-0.586-0.281-0.782-0.722-0.782c-0.459,0-0.986,0.375-1.267,0.672v3.306h-0.612v-4.419H195.488z"/>
		<path d="M199.724,426.133v-1.453h0.612v1.453h1.02v0.526h-1.02v3.145c0,0.205,0.144,0.307,0.501,0.307
			c0.204,0,0.383-0.017,0.544-0.043v0.502c-0.111,0.034-0.357,0.068-0.714,0.068c-0.662,0-0.942-0.171-0.942-0.731v-3.247h-0.723
			v-0.526H199.724z"/>
		<path d="M202.369,429.431c0.289,0.416,0.713,0.68,1.266,0.68c0.663,0,0.952-0.356,0.952-0.731c0-1.121-2.618-0.526-2.566-2.142
			c0.025-0.765,0.612-1.197,1.462-1.189c0.578,0.008,1.215,0.323,1.513,0.773l-0.425,0.374c-0.34-0.417-0.663-0.621-1.139-0.621
			c-0.518,0-0.799,0.264-0.799,0.655c0,0.96,2.567,0.467,2.567,2.116c0,0.857-0.748,1.292-1.547,1.292
			c-0.688,0-1.36-0.298-1.768-0.842L202.369,429.431z"/>
		<path d="M207.163,430.552l-0.535,1.259h-0.357l0.399-1.259h-0.34v-0.935h0.833V430.552z"/>
		<path d="M211.39,432.184v-6.051h0.612v0.519h0.018c0.229-0.332,0.722-0.604,1.147-0.604c0.782,0,1.81,0.526,1.81,2.295
			c0,1.717-1.028,2.295-1.777,2.295c-0.416,0-0.824-0.213-1.164-0.493l-0.034-0.018v2.057H211.39z M212.002,429.499
			c0.332,0.365,0.748,0.612,1.114,0.612c0.714,0,1.249-0.468,1.249-1.802c0-1.122-0.484-1.734-1.249-1.734
			c-0.391,0-0.68,0.171-1.114,0.596V429.499z"/>
		<path d="M215.965,426.133h0.612v0.876h0.017c0.34-0.604,0.706-0.944,1.437-0.944v0.612c-0.765,0.017-1.164,0.519-1.453,1.428
			v2.447h-0.612V426.133z"/>
		<path d="M220.327,430.638c-1.207,0-1.811-1.021-1.811-2.295c0-1.275,0.604-2.295,1.811-2.295c1.207,0,1.81,1.02,1.81,2.295
			C222.137,429.618,221.533,430.638,220.327,430.638z M220.327,426.575c-0.731,0-1.199,0.629-1.199,1.769
			c0,1.139,0.468,1.768,1.199,1.768c0.73,0,1.198-0.629,1.198-1.768C221.525,427.204,221.057,426.575,220.327,426.575z"/>
		<path d="M223.431,430.552v-3.893h-0.747v-0.526h0.747v-0.502c0-1.045,0.357-1.3,1.08-1.3c0.179,0,0.366,0.025,0.544,0.043v0.544
			c-0.144-0.018-0.306-0.06-0.441-0.06c-0.417,0-0.57,0.136-0.57,0.628v0.646h0.96v0.526h-0.96v3.893H223.431z"/>
		<path d="M229.246,429.61c-0.289,0.501-0.697,1.028-1.699,1.028c-0.986,0-1.921-0.681-1.921-2.295c0-1.428,0.714-2.295,1.802-2.295
			c0.917,0,1.682,0.595,1.682,2.006v0.408h-2.872c0,0.969,0.577,1.648,1.309,1.648c0.543,0,0.969-0.289,1.224-0.748L229.246,429.61z
			 M228.498,427.935c0-0.816-0.391-1.36-1.053-1.36c-0.74,0-1.14,0.544-1.191,1.36H228.498z"/>
		<path d="M230.227,429.431c0.288,0.416,0.713,0.68,1.266,0.68c0.662,0,0.951-0.356,0.951-0.731c0-1.121-2.617-0.526-2.566-2.142
			c0.025-0.765,0.612-1.197,1.463-1.189c0.577,0.008,1.215,0.323,1.512,0.773l-0.424,0.374c-0.341-0.417-0.664-0.621-1.14-0.621
			c-0.519,0-0.799,0.264-0.799,0.655c0,0.96,2.566,0.467,2.566,2.116c0,0.857-0.747,1.292-1.547,1.292
			c-0.688,0-1.36-0.298-1.768-0.842L230.227,429.431z"/>
		<path d="M234.001,429.431c0.289,0.416,0.714,0.68,1.267,0.68c0.662,0,0.951-0.356,0.951-0.731c0-1.121-2.617-0.526-2.566-2.142
			c0.025-0.765,0.612-1.197,1.462-1.189c0.577,0.008,1.216,0.323,1.513,0.773l-0.425,0.374c-0.34-0.417-0.663-0.621-1.138-0.621
			c-0.52,0-0.8,0.264-0.8,0.655c0,0.96,2.566,0.467,2.566,2.116c0,0.857-0.748,1.292-1.546,1.292c-0.689,0-1.36-0.298-1.769-0.842
			L234.001,429.431z"/>
		<path d="M238.575,424.332v0.73h-0.612v-0.73H238.575z M237.963,426.133h0.612v4.419h-0.612V426.133z"/>
		<path d="M241.577,430.638c-1.207,0-1.811-1.021-1.811-2.295c0-1.275,0.604-2.295,1.811-2.295c1.206,0,1.81,1.02,1.81,2.295
			C243.387,429.618,242.783,430.638,241.577,430.638z M241.577,426.575c-0.731,0-1.198,0.629-1.198,1.769
			c0,1.139,0.467,1.768,1.198,1.768c0.73,0,1.198-0.629,1.198-1.768C242.775,427.204,242.308,426.575,241.577,426.575z"/>
		<path d="M245.072,426.133v0.595h0.017c0.349-0.391,0.808-0.68,1.31-0.68c0.654,0,1.273,0.34,1.273,1.292v3.212h-0.611v-3.195
			c0-0.586-0.28-0.782-0.723-0.782c-0.459,0-0.985,0.375-1.266,0.672v3.306h-0.612v-4.419H245.072z"/>
		<path d="M249.919,424.332v0.73h-0.612v-0.73H249.919z M249.307,426.133h0.612v4.419h-0.612V426.133z"/>
		<path d="M251.484,429.431c0.289,0.416,0.714,0.68,1.266,0.68c0.664,0,0.952-0.356,0.952-0.731c0-1.121-2.618-0.526-2.567-2.142
			c0.026-0.765,0.612-1.197,1.462-1.189c0.579,0.008,1.216,0.323,1.513,0.773l-0.425,0.374c-0.339-0.417-0.663-0.621-1.138-0.621
			c-0.52,0-0.8,0.264-0.8,0.655c0,0.96,2.567,0.467,2.567,2.116c0,0.857-0.748,1.292-1.547,1.292c-0.688,0-1.36-0.298-1.768-0.842
			L251.484,429.431z"/>
		<path d="M255.447,426.133v-1.453h0.611v1.453h1.02v0.526h-1.02v3.145c0,0.205,0.144,0.307,0.501,0.307
			c0.204,0,0.382-0.017,0.544-0.043v0.502c-0.111,0.034-0.357,0.068-0.715,0.068c-0.662,0-0.941-0.171-0.941-0.731v-3.247h-0.723
			v-0.526H255.447z"/>
		<path d="M258.891,424.332v0.73h-0.612v-0.73H258.891z M258.278,426.133h0.612v4.419h-0.612V426.133z"/>
		<path d="M263.21,424.417h1.647c1.667,0,2.771,1.054,2.771,3.067c0,1.803-0.969,3.068-2.805,3.068h-1.614V424.417z
			 M263.889,429.975h0.919c1.411,0,2.142-0.842,2.142-2.491c0-1.793-0.85-2.489-2.107-2.489h-0.953V429.975z"/>
		<path d="M268.516,426.983c0.281-0.51,0.825-0.935,1.658-0.935c0.748,0,1.529,0.357,1.529,1.326v2.227
			c0,0.484,0.043,0.722,0.102,0.951h-0.629l-0.067-0.611c-0.306,0.34-0.798,0.697-1.462,0.697c-0.68,0-1.258-0.408-1.258-1.216
			c0-0.969,0.739-1.453,2.703-1.802v-0.238c0-0.586-0.383-0.808-0.91-0.808c-0.68,0-1.011,0.392-1.13,0.688L268.516,426.983z
			 M271.092,428.165c-1.402,0.246-2.092,0.654-2.092,1.267c0,0.407,0.392,0.68,0.731,0.68c0.442,0,1.003-0.322,1.36-0.731V428.165z"
			/>
		<path d="M273.159,426.133v-1.453h0.611v1.453h1.021v0.526h-1.021v3.145c0,0.205,0.146,0.307,0.502,0.307
			c0.204,0,0.382-0.017,0.544-0.043v0.502c-0.111,0.034-0.357,0.068-0.715,0.068c-0.662,0-0.942-0.171-0.942-0.731v-3.247h-0.723
			v-0.526H273.159z"/>
		<path d="M275.6,426.983c0.281-0.51,0.825-0.935,1.658-0.935c0.748,0,1.529,0.357,1.529,1.326v2.227
			c0,0.484,0.043,0.722,0.102,0.951h-0.629l-0.068-0.611c-0.305,0.34-0.798,0.697-1.461,0.697c-0.68,0-1.258-0.408-1.258-1.216
			c0-0.969,0.738-1.453,2.702-1.802v-0.238c0-0.586-0.383-0.808-0.909-0.808c-0.681,0-1.012,0.392-1.131,0.688L275.6,426.983z
			 M278.175,428.165c-1.402,0.246-2.091,0.654-2.091,1.267c0,0.407,0.391,0.68,0.73,0.68c0.443,0,1.004-0.322,1.36-0.731V428.165z"
			/>
		<path d="M282.113,424.417h0.681l1.513,5.031h0.017l1.521-5.031h0.689l-1.904,6.136h-0.619L282.113,424.417z"/>
		<path d="M288.176,424.332v0.73h-0.611v-0.73H288.176z M287.564,426.133h0.611v4.419h-0.611V426.133z"/>
		<path d="M289.741,429.431c0.288,0.416,0.714,0.68,1.266,0.68c0.663,0,0.952-0.356,0.952-0.731c0-1.121-2.617-0.526-2.566-2.142
			c0.025-0.765,0.612-1.197,1.462-1.189c0.578,0.008,1.216,0.323,1.513,0.773l-0.425,0.374c-0.341-0.417-0.663-0.621-1.14-0.621
			c-0.518,0-0.798,0.264-0.798,0.655c0,0.96,2.565,0.467,2.565,2.116c0,0.857-0.747,1.292-1.546,1.292
			c-0.688,0-1.36-0.298-1.768-0.842L289.741,429.431z"/>
		<path d="M296.185,430.552v-0.595h-0.017c-0.349,0.391-0.807,0.681-1.309,0.681c-0.654,0-1.275-0.34-1.275-1.292v-3.213h0.612
			v3.195c0,0.587,0.28,0.782,0.722,0.782c0.46,0,0.987-0.374,1.267-0.672v-3.306h0.612v4.419H296.185z"/>
		<path d="M298.041,426.983c0.279-0.51,0.824-0.935,1.656-0.935c0.748,0,1.53,0.357,1.53,1.326v2.227
			c0,0.484,0.042,0.722,0.102,0.951h-0.628l-0.068-0.611c-0.307,0.34-0.799,0.697-1.462,0.697c-0.681,0-1.258-0.408-1.258-1.216
			c0-0.969,0.739-1.453,2.702-1.802v-0.238c0-0.586-0.383-0.808-0.91-0.808c-0.68,0-1.011,0.392-1.129,0.688L298.041,426.983z
			 M300.615,428.165c-1.402,0.246-2.09,0.654-2.09,1.267c0,0.407,0.391,0.68,0.73,0.68c0.441,0,1.003-0.322,1.359-0.731V428.165z"/>
		<path d="M303.295,424.417v6.136h-0.612v-6.136H303.295z"/>
		<path d="M305.658,424.332v0.73h-0.611v-0.73H305.658z M305.047,426.133h0.611v4.419h-0.611V426.133z"/>
		<path d="M310.055,430.552h-3.264v-0.441l2.413-3.451h-2.175v-0.526h3.008v0.441l-2.414,3.451h2.432V430.552z"/>
		<path d="M310.795,426.983c0.281-0.51,0.824-0.935,1.658-0.935c0.747,0,1.529,0.357,1.529,1.326v2.227
			c0,0.484,0.043,0.722,0.102,0.951h-0.629l-0.067-0.611c-0.307,0.34-0.8,0.697-1.462,0.697c-0.68,0-1.258-0.408-1.258-1.216
			c0-0.969,0.74-1.453,2.702-1.802v-0.238c0-0.586-0.382-0.808-0.909-0.808c-0.68,0-1.012,0.392-1.13,0.688L310.795,426.983z
			 M313.37,428.165c-1.401,0.246-2.091,0.654-2.091,1.267c0,0.407,0.392,0.68,0.731,0.68c0.442,0,1.003-0.322,1.359-0.731V428.165z"
			/>
		<path d="M315.438,426.133v-1.453h0.612v1.453h1.021v0.526h-1.021v3.145c0,0.205,0.145,0.307,0.502,0.307
			c0.204,0,0.382-0.017,0.544-0.043v0.502c-0.111,0.034-0.357,0.068-0.715,0.068c-0.662,0-0.943-0.171-0.943-0.731v-3.247h-0.722
			v-0.526H315.438z"/>
		<path d="M318.882,424.332v0.73h-0.612v-0.73H318.882z M318.27,426.133h0.612v4.419h-0.612V426.133z"/>
		<path d="M321.884,430.638c-1.207,0-1.811-1.021-1.811-2.295c0-1.275,0.604-2.295,1.811-2.295c1.206,0,1.81,1.02,1.81,2.295
			C323.693,429.618,323.09,430.638,321.884,430.638z M321.884,426.575c-0.731,0-1.198,0.629-1.198,1.769
			c0,1.139,0.467,1.768,1.198,1.768c0.73,0,1.198-0.629,1.198-1.768C323.082,427.204,322.614,426.575,321.884,426.575z"/>
		<path d="M325.379,426.133v0.595h0.017c0.349-0.391,0.808-0.68,1.309-0.68c0.655,0,1.274,0.34,1.274,1.292v3.212h-0.611v-3.195
			c0-0.586-0.28-0.782-0.723-0.782c-0.459,0-0.985,0.375-1.266,0.672v3.306h-0.612v-4.419H325.379z"/>
		<path d="M329.18,431.267c0.808-1.088,1.216-2.125,1.216-3.493c0-1.292-0.468-2.396-1.207-3.442h0.628
			c0.774,1.02,1.191,2.201,1.191,3.484c0,1.25-0.408,2.447-1.164,3.451H329.18z"/>
	</g>
	<g>
		<path d="M234.974,57.529v-5.609h-0.024l-1.717,5.609h-0.527l-1.726-5.609h-0.024v5.609h-0.612v-6.136h1.054l1.563,4.963h0.017
			l1.539-4.963h1.07v6.136H234.974z"/>
		<path d="M238.633,57.614c-1.207,0-1.811-1.02-1.811-2.294c0-1.275,0.604-2.295,1.811-2.295s1.811,1.02,1.811,2.295
			C240.443,56.594,239.84,57.614,238.633,57.614z M238.633,53.551c-0.73,0-1.198,0.629-1.198,1.768s0.468,1.767,1.198,1.767
			s1.198-0.628,1.198-1.767S239.363,53.551,238.633,53.551z"/>
		<path d="M242.247,51.393v6.136h-0.612v-6.136H242.247z"/>
		<path d="M243.999,53.11v-1.454h0.612v1.454h1.02v0.526h-1.02v3.145c0,0.204,0.145,0.306,0.502,0.306
			c0.203,0,0.382-0.017,0.543-0.042v0.502c-0.11,0.034-0.357,0.067-0.714,0.067c-0.663,0-0.943-0.17-0.943-0.73v-3.247h-0.722V53.11
			H243.999z"/>
		<path d="M247.443,51.308v0.731h-0.612v-0.731H247.443z M246.831,53.11h0.612v4.419h-0.612V53.11z"/>
		<path d="M196.859,61.511c-0.808,1.088-1.215,2.125-1.215,3.494c0,1.291,0.467,2.396,1.207,3.442h-0.629
			c-0.773-1.02-1.19-2.201-1.19-3.485c0-1.249,0.408-2.448,1.165-3.451H196.859z"/>
		<path d="M202.165,65.897c-0.272,1.139-0.901,1.921-2.159,1.921c-1.377,0-2.346-1.003-2.346-3.153c0-1.998,0.866-3.153,2.346-3.153
			c1.138,0,1.801,0.663,2.073,1.785l-0.629,0.187c-0.221-0.866-0.612-1.394-1.53-1.394c-0.883,0-1.581,0.816-1.581,2.575
			c0,1.776,0.698,2.576,1.717,2.576c0.943,0,1.309-0.714,1.495-1.462L202.165,65.897z"/>
		<path d="M203.986,61.511v0.731h-0.612v-0.731H203.986z M203.374,63.313h0.612v4.419h-0.612V63.313z"/>
		<path d="M205.738,63.313V61.86h0.612v1.453h1.02v0.527h-1.02v3.145c0,0.204,0.145,0.306,0.502,0.306
			c0.203,0,0.382-0.017,0.544-0.042v0.501c-0.111,0.034-0.357,0.068-0.714,0.068c-0.663,0-0.943-0.17-0.943-0.731V63.84h-0.722
			v-0.527H205.738z"/>
		<path d="M208.57,63.313V61.86h0.612v1.453h1.02v0.527h-1.02v3.145c0,0.204,0.145,0.306,0.501,0.306
			c0.204,0,0.382-0.017,0.544-0.042v0.501c-0.111,0.034-0.357,0.068-0.714,0.068c-0.663,0-0.943-0.17-0.943-0.731V63.84h-0.723
			v-0.527H208.57z"/>
		<path d="M211.01,64.163c0.281-0.51,0.825-0.935,1.658-0.935c0.748,0,1.53,0.357,1.53,1.326v2.227c0,0.484,0.042,0.722,0.102,0.952
			h-0.629l-0.068-0.612c-0.306,0.34-0.798,0.697-1.461,0.697c-0.68,0-1.258-0.408-1.258-1.215c0-0.969,0.739-1.453,2.702-1.802
			v-0.238c0-0.586-0.383-0.808-0.909-0.808c-0.68,0-1.011,0.391-1.13,0.688L211.01,64.163z M213.585,65.345
			c-1.402,0.246-2.091,0.654-2.091,1.266c0,0.408,0.391,0.68,0.731,0.68c0.442,0,1.003-0.322,1.36-0.731V65.345z"/>
		<path d="M218.755,61.597v5.167c0,0.323-0.017,0.646,0.034,0.969h-0.562l-0.084-0.434c-0.205,0.28-0.638,0.519-1.165,0.519
			c-0.782,0-1.81-0.527-1.81-2.295c0-1.717,1.028-2.294,1.776-2.294c0.417,0,0.824,0.212,1.164,0.493l0.035,0.017v-2.142H218.755z
			 M218.144,64.368c-0.333-0.366-0.749-0.613-1.114-0.613c-0.713,0-1.249,0.468-1.249,1.802c0,1.122,0.484,1.733,1.249,1.733
			c0.392,0,0.68-0.169,1.114-0.594V64.368z"/>
		<path d="M220.993,61.511v0.731h-0.611v-0.731H220.993z M220.381,63.313h0.611v4.419h-0.611V63.313z"/>
		<path d="M223.238,63.313v0.594h0.017c0.349-0.39,0.807-0.679,1.309-0.679c0.655,0,1.275,0.34,1.275,1.292v3.212h-0.612v-3.196
			c0-0.586-0.28-0.782-0.722-0.782c-0.459,0-0.986,0.375-1.266,0.672v3.306h-0.612v-4.419H223.238z"/>
		<path d="M228.085,61.511v0.731h-0.612v-0.731H228.085z M227.473,63.313h0.612v4.419h-0.612V63.313z"/>
		<path d="M230.67,67.733l-0.535,1.258h-0.357l0.399-1.258h-0.34v-0.935h0.833V67.733z"/>
		<path d="M234.838,66.611c0.288,0.417,0.713,0.68,1.266,0.68c0.662,0,0.952-0.356,0.952-0.731c0-1.122-2.618-0.526-2.567-2.142
			c0.025-0.765,0.613-1.198,1.463-1.189c0.578,0.008,1.215,0.323,1.513,0.773l-0.425,0.374c-0.341-0.417-0.663-0.621-1.139-0.621
			c-0.52,0-0.799,0.264-0.799,0.655c0,0.96,2.565,0.467,2.565,2.116c0,0.858-0.747,1.292-1.546,1.292
			c-0.689,0-1.36-0.297-1.768-0.841L234.838,66.611z"/>
		<path d="M238.799,63.313V61.86h0.612v1.453h1.021v0.527h-1.021v3.145c0,0.204,0.146,0.306,0.503,0.306
			c0.203,0,0.381-0.017,0.543-0.042v0.501c-0.11,0.034-0.357,0.068-0.714,0.068c-0.663,0-0.944-0.17-0.944-0.731V63.84h-0.723
			v-0.527H238.799z"/>
		<path d="M241.24,64.163c0.281-0.51,0.824-0.935,1.657-0.935c0.748,0,1.53,0.357,1.53,1.326v2.227c0,0.484,0.042,0.722,0.102,0.952
			H243.9l-0.067-0.612c-0.307,0.34-0.8,0.697-1.462,0.697c-0.681,0-1.258-0.408-1.258-1.215c0-0.969,0.739-1.453,2.703-1.802v-0.238
			c0-0.586-0.383-0.808-0.91-0.808c-0.68,0-1.012,0.391-1.131,0.688L241.24,64.163z M243.816,65.345
			c-1.403,0.246-2.092,0.654-2.092,1.266c0,0.408,0.391,0.68,0.731,0.68c0.441,0,1.003-0.322,1.36-0.731V65.345z"/>
		<path d="M245.722,61.597h0.612v3.952h0.017l1.784-2.235h0.74l-1.301,1.632l1.471,2.788h-0.723l-1.173-2.261l-0.815,0.935v1.326
			h-0.612V61.597z"/>
		<path d="M253.22,66.79c-0.288,0.501-0.696,1.028-1.7,1.028c-0.984,0-1.92-0.68-1.92-2.295c0-1.427,0.713-2.294,1.801-2.294
			c0.919,0,1.684,0.595,1.684,2.005v0.408h-2.873c0,0.969,0.578,1.648,1.309,1.648c0.545,0,0.969-0.289,1.225-0.748L253.22,66.79z
			 M252.473,65.115c0-0.816-0.391-1.36-1.055-1.36c-0.739,0-1.139,0.544-1.189,1.36H252.473z"/>
		<path d="M254.88,61.597v2.311h0.017c0.349-0.39,0.808-0.679,1.309-0.679c0.654,0,1.275,0.34,1.275,1.292v3.212h-0.612v-3.196
			c0-0.586-0.28-0.782-0.723-0.782c-0.458,0-0.985,0.375-1.266,0.672v3.306h-0.612v-6.136H254.88z"/>
		<path d="M260.364,67.818c-1.207,0-1.811-1.02-1.811-2.295c0-1.274,0.604-2.294,1.811-2.294c1.206,0,1.81,1.02,1.81,2.294
			C262.174,66.798,261.57,67.818,260.364,67.818z M260.364,63.755c-0.731,0-1.198,0.629-1.198,1.768
			c0,1.139,0.467,1.768,1.198,1.768c0.73,0,1.198-0.628,1.198-1.768C261.562,64.384,261.095,63.755,260.364,63.755z"/>
		<path d="M263.979,61.597v6.136h-0.612v-6.136H263.979z"/>
		<path d="M268.832,61.597v5.167c0,0.323-0.018,0.646,0.034,0.969h-0.561l-0.085-0.434c-0.204,0.28-0.637,0.519-1.164,0.519
			c-0.783,0-1.811-0.527-1.811-2.295c0-1.717,1.027-2.294,1.775-2.294c0.417,0,0.824,0.212,1.165,0.493l0.034,0.017v-2.142H268.832z
			 M268.221,64.368c-0.332-0.366-0.748-0.613-1.113-0.613c-0.715,0-1.25,0.468-1.25,1.802c0,1.122,0.484,1.733,1.25,1.733
			c0.391,0,0.68-0.169,1.113-0.594V64.368z"/>
		<path d="M273.543,66.79c-0.289,0.501-0.696,1.028-1.699,1.028c-0.986,0-1.921-0.68-1.921-2.295c0-1.427,0.714-2.294,1.802-2.294
			c0.918,0,1.683,0.595,1.683,2.005v0.408h-2.872c0,0.969,0.578,1.648,1.309,1.648c0.543,0,0.969-0.289,1.224-0.748L273.543,66.79z
			 M272.795,65.115c0-0.816-0.391-1.36-1.053-1.36c-0.74,0-1.14,0.544-1.189,1.36H272.795z"/>
		<path d="M274.43,63.313h0.612v0.875h0.017c0.34-0.604,0.706-0.944,1.437-0.944v0.612c-0.765,0.017-1.165,0.519-1.453,1.428v2.448
			h-0.612V63.313z"/>
		<path d="M277.354,66.611c0.29,0.417,0.714,0.68,1.267,0.68c0.663,0,0.952-0.356,0.952-0.731c0-1.122-2.618-0.526-2.566-2.142
			c0.025-0.765,0.611-1.198,1.462-1.189c0.577,0.008,1.215,0.323,1.512,0.773l-0.424,0.374c-0.34-0.417-0.664-0.621-1.139-0.621
			c-0.52,0-0.8,0.264-0.8,0.655c0,0.96,2.567,0.467,2.567,2.116c0,0.858-0.748,1.292-1.547,1.292c-0.689,0-1.36-0.297-1.769-0.841
			L277.354,66.611z"/>
		<path d="M280.884,68.447c0.808-1.088,1.216-2.125,1.216-3.493c0-1.292-0.469-2.396-1.207-3.442h0.628
			c0.774,1.021,1.19,2.202,1.19,3.484c0,1.25-0.408,2.448-1.164,3.451H280.884z"/>
	</g>
	<g>
		<g>
			<path d="M416.329,223.859l6.136,1.887v1.012l-6.136,1.887v-0.714l1.921-0.577v-2.202l-1.921-0.577V223.859z M418.828,225.321
				v1.861l3.161-0.884v-0.093L418.828,225.321z"/>
		</g>
		<g>
			<path d="M420.307,232.93c0-0.255-0.043-0.527-0.119-0.68c-0.153,0.128-0.493,0.306-0.901,0.306c-0.875,0-1.546-0.722-1.546-1.614
				c0-0.357,0.05-0.544,0.118-0.782c-0.068-0.238-0.212-0.348-0.408-0.348c-0.204,0-0.323,0.145-0.323,0.365
				c0,2.09-0.373,2.762-1.24,2.762c-0.646,0-1.189-0.637-1.189-2.014c0-1.242,0.34-1.905,1.07-1.905
				c0.442,0,0.654,0.273,0.901,0.749c0.102-0.34,0.365-0.552,0.629-0.552c0.383,0,0.544,0.254,0.756,0.595
				c0.315-0.416,0.748-0.604,1.232-0.604c0.936,0,1.547,0.73,1.547,1.674c0,0.476-0.102,0.808-0.306,1.096
				c0.187,0.265,0.357,0.621,0.391,0.952H420.307z M416.516,230.831c0-0.96-0.425-1.231-0.739-1.231
				c-0.331,0-0.553,0.203-0.553,1.428c0,0.731,0.204,1.326,0.638,1.335C416.295,232.353,416.516,231.911,416.516,230.831z
				 M420.307,230.857c0-0.697-0.442-1.071-1.021-1.071c-0.587,0-1.02,0.46-1.02,1.14c0,0.695,0.459,1.053,0.986,1.053
				C419.898,231.978,420.307,231.605,420.307,230.857z"/>
		</g>
		<g>
			<path d="M416.243,235.228c0-1.207,1.021-1.811,2.295-1.811c1.275,0,2.295,0.604,2.295,1.811s-1.02,1.811-2.295,1.811
				C417.264,237.039,416.243,236.435,416.243,235.228z M420.307,235.228c0-0.73-0.629-1.199-1.769-1.199
				c-1.139,0-1.768,0.469-1.768,1.199s0.629,1.198,1.768,1.198C419.678,236.426,420.307,235.958,420.307,235.228z"/>
		</g>
		<g>
			<path d="M420.748,238.722h-0.595v0.019c0.392,0.348,0.68,0.807,0.68,1.308c0,0.655-0.34,1.275-1.292,1.275h-3.212v-0.612h3.195
				c0.586,0,0.782-0.279,0.782-0.723c0-0.458-0.374-0.985-0.672-1.267h-3.306v-0.611h4.419V238.722z"/>
		</g>
		<g>
			<path d="M422.55,243.57h-0.73v-0.612h0.73V243.57z M420.748,242.958v0.612h-4.419v-0.612H420.748z"/>
		</g>
		<g>
			<path d="M417.45,245.135c-0.416,0.289-0.68,0.714-0.68,1.266c0,0.663,0.356,0.952,0.731,0.952c1.122,0,0.526-2.618,2.142-2.566
				c0.765,0.025,1.198,0.611,1.189,1.461c-0.008,0.578-0.323,1.217-0.773,1.513l-0.374-0.425c0.417-0.339,0.621-0.663,0.621-1.138
				c0-0.519-0.264-0.8-0.654-0.8c-0.961,0-0.469,2.567-2.116,2.567c-0.858,0-1.293-0.749-1.293-1.548
				c0-0.688,0.298-1.358,0.842-1.767L417.45,245.135z"/>
		</g>
		<g>
			<path d="M420.748,249.097h1.453v0.612h-1.453v1.02h-0.526v-1.02h-3.145c-0.204,0-0.307,0.144-0.307,0.501
				c0,0.205,0.018,0.383,0.043,0.544h-0.502c-0.034-0.111-0.068-0.357-0.068-0.715c0-0.663,0.171-0.942,0.731-0.942h3.247v-0.723
				h0.526V249.097z"/>
		</g>
		<g>
			<path d="M422.55,252.541h-0.73v-0.611h0.73V252.541z M420.748,251.929v0.611h-4.419v-0.611H420.748z"/>
		</g>
		<g>
			<path d="M419.431,256.613c0.535-0.17,0.876-0.518,0.876-1.045c0-0.757-0.646-1.198-1.769-1.198c-1.121,0-1.768,0.441-1.768,1.198
				c0,0.561,0.188,0.875,0.816,1.215l-0.222,0.493c-0.747-0.441-1.122-0.833-1.122-1.708c0-1.104,0.867-1.811,2.295-1.811
				s2.295,0.706,2.295,1.811c0,0.909-0.51,1.334-1.198,1.615L419.431,256.613z"/>
		</g>
		<g>
			<path d="M416.243,259.794c0-1.207,1.021-1.811,2.295-1.811c1.275,0,2.295,0.604,2.295,1.811c0,1.206-1.02,1.81-2.295,1.81
				C417.264,261.604,416.243,261,416.243,259.794z M420.307,259.794c0-0.732-0.629-1.198-1.769-1.198
				c-1.139,0-1.768,0.466-1.768,1.198c0,0.731,0.629,1.197,1.768,1.197C419.678,260.992,420.307,260.526,420.307,259.794z"/>
		</g>
	</g>
	<g>
		<rect x="67.147" y="242.366" width="341.324" height="0.708"/>
	</g>
	<g>
		<rect x="326.75" y="379.103" fill="#FFFFFF" width="63.996" height="10.004"/>
	</g>
	<g>
		<path d="M330.168,386.297v-5.113h0.822l1.409,4.334h0.015l1.416-4.334h0.822v5.113h-0.469v-4.731h-0.014l-1.537,4.731h-0.445
			l-1.537-4.731h-0.014v4.731H330.168z"/>
		<path d="M335.938,381.806v-0.622h0.425v0.622H335.938z M336.362,386.297h-0.425v-3.683h0.425V386.297z"/>
		<path d="M337.51,381.184h0.426v5.113h-0.426V381.184z"/>
		<path d="M339.083,381.184h0.425v5.113h-0.425V381.184z"/>
		<path d="M340.656,381.806v-0.622h0.425v0.622H340.656z M341.081,386.297h-0.425v-3.683h0.425V386.297z"/>
		<path d="M344.941,384.456c0,0.999-0.368,1.912-1.516,1.912c-1.146,0-1.516-0.913-1.516-1.912c0-0.998,0.369-1.912,1.516-1.912
			C344.573,382.543,344.941,383.458,344.941,384.456z M342.336,384.456c0,0.999,0.333,1.572,1.09,1.572
			c0.758,0,1.091-0.573,1.091-1.572c0-0.998-0.333-1.572-1.091-1.572C342.669,382.883,342.336,383.458,342.336,384.456z"/>
		<path d="M345.779,386.297v-3.683h0.425v0.58c0.396-0.41,0.723-0.651,1.261-0.651c0.765,0,1.091,0.438,1.091,1.239v2.515h-0.425
			v-2.472c0-0.609-0.185-0.942-0.751-0.942c-0.453,0-0.708,0.276-1.176,0.701v2.713H345.779z"/>
		<path d="M351.816,381.184h1.445c1.586,0,2.224,1.189,2.224,2.556c0,1.368-0.638,2.558-2.224,2.558h-1.445V381.184z
			 M352.284,385.915h0.991c1.133,0,1.742-0.793,1.742-2.175c0-1.38-0.609-2.174-1.742-2.174h-0.991V385.915z"/>
		<path d="M359.121,384.456c0,0.999-0.368,1.912-1.516,1.912s-1.516-0.913-1.516-1.912c0-0.998,0.368-1.912,1.516-1.912
			S359.121,383.458,359.121,384.456z M356.516,384.456c0,0.999,0.332,1.572,1.09,1.572s1.091-0.573,1.091-1.572
			c0-0.998-0.333-1.572-1.091-1.572S356.516,383.458,356.516,384.456z"/>
		<path d="M359.952,381.184h0.425v5.113h-0.425V381.184z"/>
		<path d="M361.524,381.184h0.425v5.113h-0.425V381.184z"/>
		<path d="M365.116,386.297l-0.057-0.446c-0.439,0.348-0.772,0.517-1.338,0.517c-0.574,0-1.014-0.354-1.014-0.963
			c0-1.006,0.821-1.19,2.358-1.529v-0.256c0-0.488-0.212-0.736-0.843-0.736c-0.438,0-0.8,0.241-1.069,0.666l-0.283-0.171
			c0.318-0.594,0.771-0.835,1.367-0.835c0.835,0,1.231,0.34,1.231,1.154v1.927c0,0.184,0.015,0.425,0.057,0.673H365.116z
			 M365.045,384.214c-1.685,0.369-1.912,0.716-1.912,1.184c0,0.403,0.276,0.63,0.659,0.63c0.396,0,0.885-0.233,1.253-0.608V384.214z
			"/>
		<path d="M366.619,386.297v-3.683h0.425v0.7h0.015c0.198-0.453,0.596-0.771,1.062-0.771h0.191v0.41h-0.191
			c-0.467,0-1.077,0.554-1.077,1.261v2.083H366.619z"/>
		<path d="M371.105,381.184h1.431c1.26,0,1.813,0.396,1.813,1.281c0,0.553-0.213,0.871-0.723,1.105
			c0.559,0.247,0.928,0.68,0.928,1.324c0,1.062-0.716,1.402-1.82,1.402h-1.629V381.184z M371.573,383.451h1.111
			c0.603,0,1.197-0.199,1.197-0.95c0-0.75-0.468-0.935-1.389-0.935h-0.92V383.451z M371.573,385.915h1.211
			c0.899,0,1.303-0.325,1.303-1.048c0-0.588-0.425-1.034-1.452-1.034h-1.062V385.915z"/>
		<path d="M375.697,381.184h0.425v5.113h-0.425V381.184z"/>
		<path d="M379.983,384.456c0,0.999-0.368,1.912-1.516,1.912s-1.517-0.913-1.517-1.912c0-0.998,0.369-1.912,1.517-1.912
			S379.983,383.458,379.983,384.456z M377.377,384.456c0,0.999,0.333,1.572,1.091,1.572s1.091-0.573,1.091-1.572
			c0-0.998-0.333-1.572-1.091-1.572S377.377,383.458,377.377,384.456z"/>
		<path d="M383.038,383.648c-0.192-0.425-0.469-0.765-0.957-0.765c-0.694,0-1.161,0.432-1.161,1.572
			c0,0.942,0.425,1.572,1.161,1.572c0.524,0,0.808-0.29,1.104-0.765l0.341,0.163c-0.312,0.524-0.744,0.941-1.445,0.941
			c-1.033,0-1.587-0.8-1.587-1.912c0-1.268,0.639-1.912,1.587-1.912c0.694,0,1.126,0.39,1.346,0.999L383.038,383.648z"/>
		<path d="M384.363,386.297v-5.113h0.425v3.385l1.708-1.954h0.488l-1.197,1.374l1.381,2.309h-0.475l-1.176-2.012l-0.729,0.822v1.189
			H384.363z"/>
	</g>
	<g>
		<circle cx="358.394" cy="393.657" r="1.89"/>
	</g>
	<g>
		<g>
			<rect x="351.552" y="84.181" fill="#FFFFFF" width="44.863" height="10.004"/>
		</g>
		<g>
			<path d="M359.042,86.262h3.499v0.382h-1.516v4.731h-0.468v-4.731h-1.516V86.262z"/>
			<path d="M363.343,91.375v-5.113h0.425v2.011c0.396-0.411,0.723-0.651,1.261-0.651c0.765,0,1.091,0.438,1.091,1.239v2.514h-0.425
				v-2.472c0-0.609-0.185-0.942-0.751-0.942c-0.453,0-0.708,0.276-1.176,0.701v2.713H363.343z"/>
			<path d="M367.381,89.548c0,0.835,0.348,1.558,1.184,1.558c0.475,0,0.708-0.163,1.076-0.744l0.348,0.185
				c-0.396,0.651-0.758,0.899-1.46,0.899c-0.962,0-1.572-0.616-1.572-1.912c0-1.141,0.582-1.912,1.517-1.912
				c0.999,0,1.473,0.786,1.473,1.927H367.381z M369.521,89.208c-0.085-0.758-0.418-1.239-1.062-1.246
				c-0.751-0.007-1.069,0.758-1.077,1.246H369.521z"/>
			<path d="M371.811,90.688h0.014l1.026-2.996h0.454l-1.374,3.945c-0.248,0.723-0.51,1.041-1.176,1.041
				c-0.184,0-0.298-0.014-0.396-0.042v-0.347c0.127,0.015,0.262,0.05,0.425,0.05c0.298,0,0.623-0.262,0.828-1.02l-1.281-3.626h0.467
				L371.811,90.688z"/>
			<path d="M379.561,91.375h-0.51l-1.189-2.337h-1.324v2.337h-0.468v-5.113h1.729c1.005,0,1.572,0.552,1.572,1.388
				c0,0.673-0.333,1.119-1.063,1.303L379.561,91.375z M376.537,88.655h1.261c0.68,0,1.104-0.375,1.104-1.005
				s-0.368-1.006-1.104-1.006h-1.261V88.655z"/>
			<path d="M383.444,87.692v3.683h-0.425v-0.581c-0.396,0.41-0.723,0.651-1.261,0.651c-0.765,0-1.091-0.439-1.091-1.24v-2.514h0.425
				v2.472c0,0.609,0.185,0.942,0.751,0.942c0.453,0,0.709-0.276,1.176-0.701v-2.713H383.444z"/>
			<path d="M384.601,86.262h0.425v5.113h-0.425V86.262z"/>
			<path d="M386.28,89.548c0,0.835,0.347,1.558,1.183,1.558c0.475,0,0.708-0.163,1.076-0.744l0.348,0.185
				c-0.396,0.651-0.758,0.899-1.46,0.899c-0.962,0-1.572-0.616-1.572-1.912c0-1.141,0.582-1.912,1.517-1.912
				c0.999,0,1.473,0.786,1.473,1.927H386.28z M388.419,89.208c-0.085-0.758-0.418-1.239-1.062-1.246
				c-0.751-0.007-1.069,0.758-1.076,1.246H388.419z"/>
		</g>
		<g>
			<circle cx="373.983" cy="98.735" r="1.89"/>
		</g>
	</g>
	<g>
		<g>
			<rect x="81.328" y="84.889" fill="#FFFFFF" width="39.902" height="10.004"/>
		</g>
		<g>
			<path d="M81.704,90.653c0.198,0.778,0.651,1.119,1.458,1.119c0.637,0,1.02-0.404,1.02-1.02c0-1.375-2.77-0.836-2.77-2.529
				c0-0.758,0.525-1.325,1.474-1.325c0.808,0,1.402,0.439,1.636,1.226l-0.403,0.121c-0.184-0.567-0.581-0.963-1.232-0.963
				c-0.595,0-1.006,0.34-1.006,0.942c0,0.347,0.099,0.595,1.041,0.949c1.438,0.538,1.728,0.892,1.728,1.629
				c0,0.87-0.729,1.352-1.558,1.352c-0.978,0-1.537-0.432-1.821-1.367L81.704,90.653z"/>
			<path d="M85.565,92.083v-3.683h0.425v0.56c0.376-0.396,0.652-0.63,1.226-0.63c0.411,0,0.786,0.262,0.892,0.673
				c0.333-0.39,0.687-0.673,1.219-0.673c0.644,0,0.97,0.354,0.97,0.999v2.755h-0.425v-2.798c0-0.41-0.227-0.616-0.638-0.616
				c-0.326,0-0.864,0.347-1.09,0.701v2.712h-0.426v-2.798c0-0.41-0.226-0.616-0.637-0.616c-0.325,0-0.864,0.347-1.091,0.701v2.712
				H85.565z"/>
			<path d="M93.48,92.083l-0.057-0.446c-0.439,0.348-0.772,0.517-1.338,0.517c-0.574,0-1.013-0.354-1.013-0.963
				c0-1.005,0.821-1.189,2.358-1.529v-0.255c0-0.489-0.212-0.736-0.843-0.736c-0.439,0-0.8,0.241-1.069,0.666l-0.284-0.17
				c0.319-0.595,0.772-0.835,1.368-0.835c0.835,0,1.232,0.34,1.232,1.154v1.927c0,0.184,0.014,0.425,0.056,0.672H93.48z
				 M93.409,90.001c-1.685,0.368-1.912,0.715-1.912,1.183c0,0.404,0.276,0.63,0.659,0.63c0.397,0,0.885-0.234,1.253-0.609V90.001z"
				/>
			<path d="M94.983,92.083v-3.683h0.425v0.701h0.014c0.198-0.453,0.595-0.771,1.062-0.771h0.191v0.411h-0.191
				c-0.468,0-1.077,0.553-1.077,1.261v2.082H94.983z"/>
			<path d="M97.414,88.401v-1.204h0.425v1.204h0.807v0.34h-0.807v2.699c0,0.248,0.113,0.375,0.375,0.375
				c0.142,0,0.297-0.035,0.432-0.078v0.354c-0.141,0.021-0.29,0.064-0.432,0.064c-0.602,0-0.8-0.198-0.8-0.645v-2.769h-0.553v-0.34
				H97.414z"/>
			<path d="M104.244,88.471c-0.219-0.75-0.63-1.189-1.246-1.189c-1.013,0-1.459,0.992-1.459,2.245c0,1.254,0.446,2.246,1.509,2.246
				c0.821,0,1.119-0.582,1.289-1.247l0.439,0.078c-0.191,0.914-0.666,1.551-1.736,1.551c-1.239,0-1.969-1.048-1.969-2.627
				s0.729-2.628,1.969-2.628c0.914,0,1.417,0.645,1.637,1.48L104.244,88.471z"/>
			<path d="M105.635,87.593V86.97h0.425v0.623H105.635z M106.06,92.083h-0.425v-3.683h0.425V92.083z"/>
			<path d="M107.257,88.401v-1.204h0.425v1.204h0.807v0.34h-0.807v2.699c0,0.248,0.113,0.375,0.375,0.375
				c0.142,0,0.297-0.035,0.432-0.078v0.354c-0.141,0.021-0.29,0.064-0.432,0.064c-0.602,0-0.8-0.198-0.8-0.645v-2.769h-0.553v-0.34
				H107.257z"/>
			<path d="M109.178,87.593V86.97h0.425v0.623H109.178z M109.603,92.083h-0.425v-3.683h0.425V92.083z"/>
			<path d="M110.524,88.401h2.521v0.269l-2.125,3.074h2.182v0.34h-2.748v-0.269l2.125-3.074h-1.955V88.401z"/>
			<path d="M114.002,90.257c0,0.835,0.348,1.558,1.184,1.558c0.474,0,0.708-0.163,1.076-0.744l0.347,0.185
				c-0.396,0.651-0.758,0.899-1.459,0.899c-0.962,0-1.572-0.616-1.572-1.912c0-1.141,0.582-1.912,1.517-1.912
				c0.999,0,1.472,0.786,1.472,1.927H114.002z M116.142,89.917c-0.085-0.758-0.418-1.24-1.062-1.247
				c-0.751-0.007-1.069,0.758-1.077,1.247H116.142z"/>
			<path d="M117.447,92.083v-3.683h0.425v0.581c0.397-0.411,0.723-0.651,1.261-0.651c0.765,0,1.09,0.439,1.09,1.239v2.514h-0.425
				v-2.472c0-0.609-0.184-0.942-0.751-0.942c-0.453,0-0.708,0.276-1.176,0.701v2.712H117.447z"/>
		</g>
		<g>
			<circle cx="100.925" cy="99.443" r="1.889"/>
		</g>
	</g>
	<g>
		<g>
			<rect x="83.926" y="379.443" fill="#FFFFFF" width="39.902" height="10.004"/>
		</g>
		<g>
			<path d="M99.946,383.026c-0.22-0.75-0.63-1.19-1.247-1.19c-1.013,0-1.458,0.992-1.458,2.245c0,1.254,0.445,2.246,1.508,2.246
				c0.821,0,1.119-0.581,1.289-1.247l0.439,0.078c-0.192,0.913-0.666,1.551-1.735,1.551c-1.24,0-1.969-1.047-1.969-2.628
				c0-1.579,0.729-2.627,1.969-2.627c0.914,0,1.417,0.646,1.636,1.479L99.946,383.026z"/>
			<path d="M101.514,381.524h0.467v5.114h-0.467V381.524z"/>
			<path d="M102.953,381.524h3.499v0.382h-1.515v4.732h-0.468v-4.732h-1.515V381.524z"/>
			<path d="M107.332,385.208c0.198,0.779,0.651,1.119,1.459,1.119c0.637,0,1.02-0.404,1.02-1.02c0-1.375-2.77-0.836-2.77-2.529
				c0-0.758,0.524-1.324,1.473-1.324c0.808,0,1.402,0.438,1.636,1.225l-0.404,0.121c-0.184-0.566-0.581-0.964-1.232-0.964
				c-0.595,0-1.005,0.341-1.005,0.942c0,0.348,0.099,0.596,1.041,0.95c1.438,0.537,1.728,0.891,1.728,1.629
				c0,0.87-0.729,1.352-1.558,1.352c-0.978,0-1.537-0.432-1.82-1.367L107.332,385.208z"/>
		</g>
		<g>
			<circle cx="103.523" cy="393.998" r="1.889"/>
		</g>
	</g>
	<g opacity="0.4">
		<path fill="#6B6C6F" d="M180.646,459.634h-7.795c0-2.1,0.005-4.244,0.012-6.428c0.05-19.285,0.108-41.144-3.567-62.049
			c-4.192-23.842-12.47-41.673-25.307-54.511c-28.138-28.138-84.894-27.769-126.341-27.495c-3.765,0.025-7.384,0.049-10.819,0.049
			v-7.795c3.419,0,7.021-0.023,10.768-0.049c42.816-0.281,101.46-0.666,131.903,29.779c31.397,31.396,31.259,83.815,31.157,122.091
			C180.651,455.404,180.646,457.542,180.646,459.634z"/>
	</g>
	<g>
		<path d="M16.753,319.236l-0.595,1.802h-0.765l1.955-5.729h0.884l1.955,5.729h-0.791l-0.612-1.802H16.753z M18.639,318.658
			l-0.569-1.648c-0.127-0.375-0.213-0.715-0.297-1.046h-0.018c-0.085,0.331-0.169,0.688-0.289,1.037l-0.561,1.657H18.639z"/>
		<path d="M25.824,318.522c-0.043-0.8-0.093-1.769-0.093-2.474h-0.018c-0.203,0.663-0.433,1.386-0.722,2.176l-1.011,2.779h-0.561
			l-0.935-2.728c-0.272-0.816-0.493-1.548-0.654-2.228h-0.017c-0.018,0.715-0.06,1.666-0.111,2.533l-0.154,2.456h-0.705l0.399-5.729
			h0.944l0.977,2.771c0.238,0.705,0.425,1.334,0.578,1.93h0.018c0.153-0.578,0.357-1.207,0.612-1.93l1.02-2.771h0.943l0.357,5.729
			h-0.731L25.824,318.522z"/>
		<path d="M27.833,315.394c0.322-0.076,0.841-0.127,1.351-0.127c0.74,0,1.216,0.127,1.564,0.416
			c0.298,0.221,0.484,0.561,0.484,1.011c0,0.562-0.374,1.046-0.969,1.259v0.025c0.544,0.127,1.182,0.578,1.182,1.428
			c0,0.492-0.196,0.875-0.494,1.147c-0.391,0.365-1.037,0.535-1.971,0.535c-0.51,0-0.901-0.034-1.147-0.068V315.394z M28.572,317.74
			h0.671c0.774,0,1.233-0.416,1.233-0.969c0-0.663-0.502-0.935-1.25-0.935c-0.34,0-0.536,0.025-0.655,0.051V317.74z M28.572,320.476
			c0.154,0.025,0.357,0.035,0.621,0.035c0.765,0,1.47-0.281,1.47-1.114c0-0.773-0.671-1.104-1.479-1.104h-0.612V320.476z"/>
		<path d="M33.181,315.309v5.729h-0.747v-5.729H33.181z"/>
		<path d="M35.562,315.938H33.82v-0.629h4.241v0.629h-1.751v5.1h-0.748V315.938z"/>
		<path d="M43.367,318.114c0,1.963-1.199,3.017-2.66,3.017c-1.521,0-2.576-1.181-2.576-2.914c0-1.819,1.122-3.01,2.652-3.01
			C42.355,315.207,43.367,316.406,43.367,318.114z M38.913,318.199c0,1.232,0.663,2.328,1.836,2.328s1.836-1.079,1.836-2.379
			c0-1.147-0.595-2.338-1.827-2.338C39.525,315.81,38.913,316.95,38.913,318.199z"/>
		<path d="M16.566,325.513v5.729h-0.748v-5.729H16.566z"/>
		<path d="M17.766,330.341c0.331,0.212,0.807,0.374,1.317,0.374c0.757,0,1.198-0.4,1.198-0.978c0-0.527-0.306-0.842-1.079-1.131
			c-0.935-0.34-1.513-0.833-1.513-1.631c0-0.894,0.739-1.557,1.853-1.557c0.578,0,1.012,0.137,1.258,0.281l-0.204,0.604
			c-0.179-0.11-0.562-0.271-1.08-0.271c-0.781,0-1.079,0.467-1.079,0.857c0,0.536,0.348,0.799,1.139,1.105
			c0.969,0.374,1.454,0.841,1.454,1.683c0,0.884-0.646,1.657-1.998,1.657c-0.552,0-1.156-0.17-1.462-0.374L17.766,330.341z"/>
		<path d="M23.139,326.142h-1.743v-0.629h4.242v0.629h-1.751v5.1h-0.748V326.142z"/>
		<path d="M27.017,325.513v5.729h-0.748v-5.729H27.017z"/>
		<path d="M29.397,326.142h-1.743v-0.629h4.242v0.629h-1.751v5.1h-0.748V326.142z"/>
		<path d="M33.275,325.513v3.4c0,1.274,0.569,1.818,1.334,1.818c0.841,0,1.394-0.561,1.394-1.818v-3.4h0.748v3.349
			c0,1.76-0.927,2.474-2.167,2.474c-1.173,0-2.057-0.663-2.057-2.448v-3.374H33.275z"/>
		<path d="M37.646,330.809l3.17-4.649v-0.025h-2.898v-0.621h3.867v0.451l-3.162,4.632v0.025h3.204v0.62h-4.182V330.809z"/>
		<path d="M43.479,325.513v5.729h-0.748v-5.729H43.479z"/>
		<path d="M49.668,328.318c0,1.964-1.198,3.018-2.66,3.018c-1.521,0-2.576-1.182-2.576-2.915c0-1.819,1.122-3.009,2.652-3.009
			C48.656,325.412,49.668,326.61,49.668,328.318z M45.214,328.403c0,1.233,0.663,2.329,1.836,2.329c1.173,0,1.836-1.08,1.836-2.38
			c0-1.147-0.595-2.337-1.828-2.337S45.214,327.154,45.214,328.403z"/>
		<path d="M50.631,331.242v-5.729h0.816l1.828,2.898c0.416,0.672,0.756,1.275,1.02,1.861l0.025-0.008
			c-0.068-0.766-0.085-1.463-0.085-2.354v-2.397h0.697v5.729h-0.748l-1.819-2.906c-0.399-0.638-0.781-1.292-1.062-1.912
			l-0.026,0.008c0.042,0.723,0.051,1.411,0.051,2.363v2.447H50.631z"/>
		<path d="M59.184,328.556h-2.218v2.065h2.481v0.62h-3.229v-5.729h3.102v0.621h-2.354v1.811h2.218V328.556z"/>
		<path d="M15.818,335.718h3.085v0.62h-2.337v1.904h2.159v0.611h-2.159v2.593h-0.748V335.718z"/>
		<path d="M24.863,338.523c0,1.963-1.199,3.017-2.66,3.017c-1.522,0-2.576-1.181-2.576-2.914c0-1.819,1.122-3.009,2.652-3.009
			C23.852,335.617,24.863,336.815,24.863,338.523z M20.409,338.608c0,1.232,0.663,2.328,1.836,2.328c1.173,0,1.836-1.079,1.836-2.38
			c0-1.146-0.595-2.337-1.828-2.337C21.021,336.219,20.409,337.359,20.409,338.608z"/>
		<path d="M25.827,335.794c0.374-0.067,0.917-0.119,1.419-0.119c0.79,0,1.309,0.153,1.657,0.468c0.28,0.255,0.45,0.646,0.45,1.097
			c0,0.748-0.476,1.249-1.07,1.453v0.025c0.434,0.153,0.697,0.561,0.833,1.156c0.188,0.798,0.324,1.352,0.443,1.572h-0.766
			c-0.093-0.171-0.221-0.655-0.374-1.368c-0.17-0.79-0.484-1.088-1.156-1.114h-0.698v2.482h-0.739V335.794z M26.565,338.404h0.757
			c0.79,0,1.291-0.434,1.291-1.088c0-0.739-0.536-1.062-1.317-1.062c-0.357,0-0.604,0.025-0.731,0.06V338.404z"/>
		<path d="M31.566,336.347h-1.742v-0.629h4.241v0.629h-1.751v5.1h-0.748V336.347z"/>
		<path d="M37.662,338.761h-2.218v2.064h2.482v0.621h-3.23v-5.729h3.103v0.62h-2.354v1.811h2.218V338.761z"/>
	</g>
	<g opacity="0.4">
		<path fill="#6B6C6F" d="M453.535,165.197c-36.631,0-78.892-2.352-106.371-29.832c-31.397-31.397-31.259-83.817-31.157-122.091
			c0.006-2.177,0.011-4.315,0.011-6.408h7.795c0,2.1-0.005,4.244-0.012,6.428c-0.051,19.285-0.108,41.143,3.568,62.048
			c4.191,23.843,12.469,41.673,25.306,54.511c28.078,28.078,72.769,27.77,112.201,27.498c3.669-0.025,7.271-0.05,10.786-0.05v7.795
			c-3.497,0-7.082,0.024-10.732,0.05C461.211,165.17,457.403,165.197,453.535,165.197z"/>
	</g>
	<g>
		<path d="M415.735,127.39l-0.595,1.802h-0.765l1.955-5.729h0.884l1.955,5.729h-0.791l-0.612-1.802H415.735z M417.622,126.812
			l-0.568-1.648c-0.128-0.374-0.214-0.714-0.298-1.045h-0.018c-0.085,0.332-0.169,0.688-0.288,1.037l-0.562,1.657H417.622z"/>
		<path d="M424.807,126.676c-0.043-0.799-0.094-1.768-0.094-2.473h-0.017c-0.204,0.663-0.434,1.385-0.723,2.176l-1.011,2.779h-0.562
			l-0.935-2.728c-0.272-0.816-0.492-1.547-0.654-2.227h-0.017c-0.018,0.714-0.06,1.666-0.111,2.533l-0.153,2.456h-0.704l0.398-5.729
			h0.944l0.977,2.771c0.238,0.705,0.425,1.334,0.578,1.929h0.018c0.152-0.578,0.356-1.207,0.611-1.929l1.021-2.771h0.942
			l0.357,5.729h-0.731L424.807,126.676z"/>
		<path d="M426.816,123.548c0.322-0.076,0.842-0.127,1.351-0.127c0.74,0,1.216,0.127,1.564,0.417
			c0.297,0.221,0.484,0.561,0.484,1.011c0,0.561-0.374,1.045-0.969,1.258v0.025c0.544,0.127,1.182,0.578,1.182,1.428
			c0,0.493-0.195,0.875-0.493,1.147c-0.392,0.365-1.037,0.536-1.972,0.536c-0.51,0-0.901-0.034-1.147-0.068V123.548z
			 M427.556,125.895h0.671c0.773,0,1.233-0.417,1.233-0.969c0-0.663-0.502-0.935-1.25-0.935c-0.34,0-0.535,0.025-0.654,0.051
			V125.895z M427.556,128.631c0.153,0.025,0.356,0.035,0.62,0.035c0.765,0,1.471-0.281,1.471-1.114c0-0.773-0.671-1.105-1.479-1.105
			h-0.611V128.631z"/>
		<path d="M432.164,123.463v5.729h-0.747v-5.729H432.164z"/>
		<path d="M434.546,124.092h-1.743v-0.629h4.242v0.629h-1.751v5.1h-0.748V124.092z"/>
		<path d="M442.35,126.268c0,1.963-1.198,3.018-2.66,3.018c-1.521,0-2.576-1.182-2.576-2.915c0-1.819,1.123-3.009,2.652-3.009
			C441.338,123.362,442.35,124.56,442.35,126.268z M437.896,126.354c0,1.232,0.663,2.329,1.836,2.329s1.836-1.08,1.836-2.38
			c0-1.147-0.595-2.337-1.827-2.337S437.896,125.104,437.896,126.354z"/>
		<path d="M415.549,133.668v5.729h-0.748v-5.729H415.549z"/>
		<path d="M416.749,138.496c0.331,0.212,0.807,0.375,1.316,0.375c0.757,0,1.198-0.4,1.198-0.978c0-0.526-0.306-0.841-1.079-1.13
			c-0.935-0.34-1.513-0.833-1.513-1.632c0-0.893,0.739-1.556,1.853-1.556c0.578,0,1.012,0.136,1.258,0.281l-0.204,0.604
			c-0.178-0.111-0.561-0.272-1.079-0.272c-0.781,0-1.079,0.467-1.079,0.858c0,0.536,0.349,0.799,1.139,1.105
			c0.969,0.374,1.454,0.841,1.454,1.682c0,0.884-0.646,1.657-1.998,1.657c-0.553,0-1.156-0.17-1.462-0.374L416.749,138.496z"/>
		<path d="M422.122,134.297h-1.743v-0.629h4.241v0.629h-1.75v5.1h-0.748V134.297z"/>
		<path d="M426,133.668v5.729h-0.748v-5.729H426z"/>
		<path d="M428.38,134.297h-1.742v-0.629h4.241v0.629h-1.751v5.1h-0.748V134.297z"/>
		<path d="M432.259,133.668v3.4c0,1.275,0.568,1.819,1.334,1.819c0.842,0,1.394-0.561,1.394-1.819v-3.4h0.748v3.349
			c0,1.759-0.927,2.473-2.167,2.473c-1.173,0-2.057-0.663-2.057-2.447v-3.375H432.259z"/>
		<path d="M436.629,138.963l3.171-4.649v-0.026h-2.897v-0.621h3.866v0.451l-3.161,4.632v0.025h3.204v0.621h-4.183V138.963z"/>
		<path d="M442.462,133.668v5.729h-0.748v-5.729H442.462z"/>
		<path d="M448.651,136.473c0,1.963-1.199,3.017-2.66,3.017c-1.522,0-2.576-1.181-2.576-2.915c0-1.819,1.122-3.009,2.652-3.009
			C447.64,133.566,448.651,134.765,448.651,136.473z M444.197,136.558c0,1.232,0.663,2.329,1.836,2.329s1.836-1.08,1.836-2.38
			c0-1.147-0.595-2.337-1.828-2.337C444.809,134.17,444.197,135.309,444.197,136.558z"/>
		<path d="M449.614,139.396v-5.729h0.816l1.827,2.898c0.416,0.672,0.756,1.275,1.02,1.861l0.025-0.008
			c-0.067-0.766-0.085-1.462-0.085-2.354v-2.397h0.697v5.729h-0.748l-1.819-2.906c-0.399-0.638-0.781-1.292-1.062-1.912
			l-0.026,0.008c0.042,0.722,0.052,1.411,0.052,2.362v2.448H449.614z"/>
		<path d="M458.167,136.711h-2.218v2.065h2.481v0.621h-3.229v-5.729h3.103v0.621h-2.354v1.811h2.218V136.711z"/>
		<path d="M414.81,143.958c0.45-0.076,0.985-0.127,1.572-0.127c1.062,0,1.819,0.255,2.32,0.714c0.519,0.467,0.815,1.13,0.815,2.057
			c0,0.936-0.297,1.7-0.824,2.227c-0.544,0.535-1.429,0.824-2.541,0.824c-0.536,0-0.969-0.025-1.343-0.068V143.958z
			 M415.549,149.023c0.187,0.026,0.459,0.034,0.747,0.034c1.59,0,2.44-0.884,2.44-2.431c0.009-1.352-0.757-2.21-2.321-2.21
			c-0.382,0-0.671,0.034-0.866,0.077V149.023z"/>
		<path d="M423.431,146.916h-2.219v2.064h2.482v0.621h-3.23v-5.729h3.103v0.621h-2.354v1.81h2.219V146.916z"/>
		<path d="M424.656,143.958c0.323-0.076,0.841-0.127,1.352-0.127c0.739,0,1.216,0.127,1.563,0.416
			c0.297,0.221,0.484,0.561,0.484,1.012c0,0.561-0.374,1.045-0.969,1.258v0.025c0.544,0.128,1.182,0.578,1.182,1.428
			c0,0.493-0.195,0.876-0.493,1.147c-0.392,0.365-1.036,0.535-1.972,0.535c-0.51,0-0.901-0.033-1.147-0.068V143.958z
			 M425.396,146.303h0.672c0.772,0,1.232-0.416,1.232-0.969c0-0.663-0.502-0.935-1.25-0.935c-0.34,0-0.535,0.025-0.654,0.051
			V146.303z M425.396,149.04c0.153,0.026,0.356,0.035,0.621,0.035c0.764,0,1.47-0.281,1.47-1.113c0-0.774-0.671-1.105-1.479-1.105
			h-0.612V149.04z"/>
		<path d="M434.16,146.677c0,1.963-1.198,3.018-2.66,3.018c-1.521,0-2.575-1.182-2.575-2.915c0-1.819,1.122-3.009,2.652-3.009
			C433.149,143.771,434.16,144.969,434.16,146.677z M429.707,146.762c0,1.232,0.663,2.329,1.836,2.329
			c1.172,0,1.835-1.08,1.835-2.38c0-1.147-0.594-2.337-1.827-2.337C430.318,144.375,429.707,145.513,429.707,146.762z"/>
		<path d="M435.115,143.873h0.749v5.107h2.446v0.621h-3.195V143.873z"/>
		<path d="M442.095,146.916h-2.218v2.064h2.481v0.621h-3.229v-5.729h3.103v0.621h-2.354v1.81h2.218V146.916z"/>
	</g>
</g>
</svg>
